<svg width="1398" height="188" viewBox="0 0 1398 188" fill="none" xmlns="http://www.w3.org/2000/svg">
<mask id="path-1-outside-1_2005_93" maskUnits="userSpaceOnUse" x="-4" y="-4" width="1406" height="196" fill="black">
<rect fill="white" x="-4" y="-4" width="1406" height="196"/>
<path d="M0.90625 185V0.272722H51.0568V72.4318H117.443V0.272722H167.594V185H117.443V112.841H51.0568V185H0.90625ZM248.354 187.526C233.562 187.526 220.813 184.699 210.11 179.047C199.466 173.334 191.258 165.156 185.486 154.513C179.773 143.809 176.917 131.001 176.917 116.088C176.917 101.777 179.803 89.2689 185.576 78.5653C191.349 67.8617 199.496 59.5334 210.02 53.5803C220.543 47.6271 232.96 44.6506 247.272 44.6506C257.735 44.6506 267.206 46.2741 275.684 49.5213C284.163 52.7685 291.409 57.4889 297.422 63.6825C303.436 69.8161 308.066 77.2725 311.313 86.0518C314.56 94.8312 316.184 104.723 316.184 115.727V127.273H192.431V99.8523H270.363C270.303 95.8835 269.28 92.3958 267.296 89.3892C265.372 86.3224 262.756 83.9472 259.449 82.2635C256.202 80.5196 252.503 79.6477 248.354 79.6477C244.325 79.6477 240.627 80.5196 237.26 82.2635C233.892 83.9472 231.186 86.2924 229.142 89.299C227.157 92.3056 226.105 95.8234 225.985 99.8523V129.438C225.985 133.887 226.917 137.856 228.781 141.344C230.645 144.831 233.321 147.567 236.809 149.552C240.296 151.536 244.506 152.528 249.437 152.528C252.864 152.528 255.991 152.047 258.817 151.085C261.704 150.123 264.169 148.74 266.214 146.936C268.258 145.072 269.761 142.847 270.724 140.261H316.184C314.62 149.883 310.922 158.241 305.089 165.337C299.256 172.372 291.529 177.844 281.908 181.753C272.347 185.601 261.162 187.526 248.354 187.526ZM364.946 187.165C356.107 187.165 348.289 185.722 341.494 182.835C334.76 179.889 329.468 175.439 325.619 169.486C321.771 163.533 319.847 155.956 319.847 146.756C319.847 139.179 321.14 132.715 323.725 127.363C326.311 121.951 329.919 117.531 334.549 114.104C339.179 110.676 344.561 108.06 350.695 106.256C356.888 104.452 363.563 103.28 370.719 102.739C378.476 102.137 384.7 101.416 389.39 100.574C394.141 99.6719 397.568 98.4392 399.673 96.8757C401.777 95.2521 402.83 93.1174 402.83 90.4716V90.1108C402.83 86.5028 401.447 83.7367 398.681 81.8125C395.914 79.8883 392.367 78.9261 388.037 78.9261C383.287 78.9261 379.408 79.9785 376.401 82.0831C373.455 84.1276 371.681 87.2846 371.08 91.554H325.259C325.86 83.1354 328.536 75.3783 333.286 68.2827C338.097 61.1269 345.102 55.4143 354.303 51.1449C363.503 46.8153 374.988 44.6506 388.759 44.6506C398.681 44.6506 407.58 45.8232 415.458 48.1683C423.335 50.4534 430.04 53.6705 435.572 57.8196C441.104 61.9086 445.313 66.7192 448.2 72.2514C451.146 77.7235 452.619 83.6766 452.619 90.1108V185H406.077V165.517H404.994C402.228 170.688 398.861 174.868 394.892 178.055C390.984 181.242 386.504 183.557 381.453 185C376.462 186.443 370.959 187.165 364.946 187.165ZM381.182 155.776C384.97 155.776 388.518 154.994 391.825 153.43C395.193 151.867 397.929 149.612 400.034 146.665C402.138 143.719 403.19 140.141 403.19 135.932V124.386C401.868 124.928 400.454 125.439 398.951 125.92C397.508 126.401 395.944 126.852 394.261 127.273C392.637 127.694 390.893 128.085 389.029 128.445C387.225 128.806 385.331 129.137 383.347 129.438C379.498 130.039 376.341 131.031 373.876 132.414C371.471 133.737 369.667 135.391 368.464 137.375C367.321 139.299 366.75 141.464 366.75 143.869C366.75 147.718 368.103 150.664 370.809 152.709C373.515 154.753 376.973 155.776 381.182 155.776ZM548.872 46.4545V82.5341H457.59V46.4545H548.872ZM475.269 13.2614H525.059V140.442C525.059 142.366 525.39 143.99 526.051 145.312C526.713 146.575 527.735 147.537 529.118 148.199C530.501 148.8 532.275 149.101 534.44 149.101C535.943 149.101 537.687 148.92 539.671 148.56C541.716 148.199 543.219 147.898 544.181 147.658L551.397 182.655C549.172 183.316 545.985 184.128 541.836 185.09C537.747 186.052 532.876 186.684 527.224 186.984C515.799 187.586 506.207 186.413 498.45 183.467C490.693 180.46 484.86 175.74 480.952 169.305C477.043 162.871 475.149 154.813 475.269 145.132V13.2614ZM561.284 0.272722H623.701L666.636 104.903H668.801L711.736 0.272722H774.153V185H725.085V78.2045H723.642L682.511 183.557H652.926L611.795 77.483H610.352V185H561.284V0.272722ZM827.087 187.165C818.248 187.165 810.431 185.722 803.636 182.835C796.901 179.889 791.609 175.439 787.761 169.486C783.912 163.533 781.988 155.956 781.988 146.756C781.988 139.179 783.281 132.715 785.866 127.363C788.452 121.951 792.06 117.531 796.69 114.104C801.32 110.676 806.702 108.06 812.836 106.256C819.029 104.452 825.704 103.28 832.86 102.739C840.617 102.137 846.841 101.416 851.531 100.574C856.282 99.6719 859.709 98.4392 861.814 96.8757C863.918 95.2521 864.971 93.1174 864.971 90.4716V90.1108C864.971 86.5028 863.588 83.7367 860.822 81.8125C858.056 79.8883 854.508 78.9261 850.178 78.9261C845.428 78.9261 841.549 79.9785 838.543 82.0831C835.596 84.1276 833.822 87.2846 833.221 91.554H787.4C788.001 83.1354 790.677 75.3783 795.427 68.2827C800.238 61.1269 807.244 55.4143 816.444 51.1449C825.644 46.8153 837.129 44.6506 850.9 44.6506C860.822 44.6506 869.721 45.8232 877.599 48.1683C885.476 50.4534 892.181 53.6705 897.713 57.8196C903.245 61.9086 907.454 66.7192 910.341 72.2514C913.287 77.7235 914.761 83.6766 914.761 90.1108V185H868.218V165.517H867.136C864.369 170.688 861.002 174.868 857.033 178.055C853.125 181.242 848.645 183.557 843.594 185C838.603 186.443 833.101 187.165 827.087 187.165ZM843.323 155.776C847.111 155.776 850.659 154.994 853.967 153.43C857.334 151.867 860.07 149.612 862.175 146.665C864.279 143.719 865.332 140.141 865.332 135.932V124.386C864.009 124.928 862.596 125.439 861.092 125.92C859.649 126.401 858.086 126.852 856.402 127.273C854.778 127.694 853.034 128.085 851.17 128.445C849.366 128.806 847.472 129.137 845.488 129.438C841.639 130.039 838.482 131.031 836.017 132.414C833.612 133.737 831.808 135.391 830.605 137.375C829.463 139.299 828.891 141.464 828.891 143.869C828.891 147.718 830.244 150.664 832.95 152.709C835.656 154.753 839.114 155.776 843.323 155.776ZM1055.03 91.554H1009.21C1008.97 88.7277 1007.98 86.2924 1006.23 84.2479C1004.49 82.2034 1002.23 80.6399 999.467 79.5575C996.761 78.415 993.755 77.8438 990.447 77.8438C986.178 77.8438 982.51 78.6255 979.443 80.1889C976.376 81.7524 974.873 83.9773 974.933 86.8636C974.873 88.9081 975.745 90.8023 977.549 92.5462C979.413 94.29 982.991 95.643 988.283 96.6051L1016.42 101.656C1030.62 104.242 1041.17 108.602 1048.08 114.735C1055.06 120.808 1058.58 128.956 1058.64 139.179C1058.58 149.041 1055.63 157.61 1049.8 164.886C1044.03 172.102 1036.12 177.694 1026.08 181.663C1016.09 185.571 1004.7 187.526 991.89 187.526C970.724 187.526 954.157 183.196 942.191 174.537C930.285 165.878 923.64 154.453 922.257 140.261H971.686C972.347 144.651 974.512 148.049 978.18 150.454C981.908 152.799 986.599 153.972 992.251 153.972C996.821 153.972 1000.58 153.19 1003.53 151.626C1006.53 150.063 1008.07 147.838 1008.13 144.952C1008.07 142.306 1006.74 140.201 1004.16 138.638C1001.63 137.074 997.663 135.812 992.251 134.849L967.717 130.52C953.586 128.054 943.003 123.364 935.967 116.449C928.932 109.534 925.444 100.634 925.504 89.75C925.444 80.1288 927.97 71.9808 933.081 65.3061C938.252 58.5713 945.618 53.46 955.18 49.9723C964.801 46.4245 976.196 44.6506 989.365 44.6506C1009.39 44.6506 1025.17 48.7997 1036.72 57.098C1048.32 65.3963 1054.43 76.8816 1055.03 91.554ZM1150.18 46.4545V82.5341H1058.9V46.4545H1150.18ZM1076.57 13.2614H1126.36V140.442C1126.36 142.366 1126.7 143.99 1127.36 145.312C1128.02 146.575 1129.04 147.537 1130.42 148.199C1131.81 148.8 1133.58 149.101 1135.75 149.101C1137.25 149.101 1138.99 148.92 1140.98 148.56C1143.02 148.199 1144.52 147.898 1145.49 147.658L1152.7 182.655C1150.48 183.316 1147.29 184.128 1143.14 185.09C1139.05 186.052 1134.18 186.684 1128.53 186.984C1117.1 187.586 1107.51 186.413 1099.76 183.467C1092 180.46 1086.17 175.74 1082.26 169.305C1078.35 162.871 1076.45 154.813 1076.57 145.132V13.2614ZM1225.23 187.526C1210.44 187.526 1197.69 184.699 1186.99 179.047C1176.34 173.334 1168.14 165.156 1162.36 154.513C1156.65 143.809 1153.79 131.001 1153.79 116.088C1153.79 101.777 1156.68 89.2689 1162.45 78.5653C1168.23 67.8617 1176.37 59.5334 1186.9 53.5803C1197.42 47.6271 1209.84 44.6506 1224.15 44.6506C1234.61 44.6506 1244.08 46.2741 1252.56 49.5213C1261.04 52.7685 1268.29 57.4889 1274.3 63.6825C1280.31 69.8161 1284.94 77.2725 1288.19 86.0518C1291.44 94.8312 1293.06 104.723 1293.06 115.727V127.273H1169.31V99.8523H1247.24C1247.18 95.8835 1246.16 92.3958 1244.17 89.3892C1242.25 86.3224 1239.63 83.9472 1236.33 82.2635C1233.08 80.5196 1229.38 79.6477 1225.23 79.6477C1221.2 79.6477 1217.51 80.5196 1214.14 82.2635C1210.77 83.9472 1208.06 86.2924 1206.02 89.299C1204.04 92.3056 1202.98 95.8234 1202.86 99.8523V129.438C1202.86 133.887 1203.79 137.856 1205.66 141.344C1207.52 144.831 1210.2 147.567 1213.69 149.552C1217.17 151.536 1221.38 152.528 1226.31 152.528C1229.74 152.528 1232.87 152.047 1235.7 151.085C1238.58 150.123 1241.05 148.74 1243.09 146.936C1245.14 145.072 1246.64 142.847 1247.6 140.261H1293.06C1291.5 149.883 1287.8 158.241 1281.97 165.337C1276.13 172.372 1268.41 177.844 1258.79 181.753C1249.23 185.601 1238.04 187.526 1225.23 187.526ZM1303.22 185V46.4545H1351.57V72.7926H1353.01C1355.53 63.0511 1359.53 55.9254 1365.01 51.4155C1370.54 46.9055 1377 44.6506 1384.4 44.6506C1386.56 44.6506 1388.7 44.831 1390.8 45.1918C1392.97 45.4924 1395.04 45.9434 1397.03 46.5447V89.0284C1394.56 88.1866 1391.52 87.5552 1387.92 87.1342C1384.31 86.7133 1381.21 86.5028 1378.63 86.5028C1373.75 86.5028 1369.36 87.6153 1365.46 89.8402C1361.61 92.005 1358.57 95.0717 1356.35 99.0405C1354.12 102.949 1353.01 107.549 1353.01 112.841V185H1303.22Z"/>
</mask>
<path d="M0.90625 185V0.272722H51.0568V72.4318H117.443V0.272722H167.594V185H117.443V112.841H51.0568V185H0.90625ZM248.354 187.526C233.562 187.526 220.813 184.699 210.11 179.047C199.466 173.334 191.258 165.156 185.486 154.513C179.773 143.809 176.917 131.001 176.917 116.088C176.917 101.777 179.803 89.2689 185.576 78.5653C191.349 67.8617 199.496 59.5334 210.02 53.5803C220.543 47.6271 232.96 44.6506 247.272 44.6506C257.735 44.6506 267.206 46.2741 275.684 49.5213C284.163 52.7685 291.409 57.4889 297.422 63.6825C303.436 69.8161 308.066 77.2725 311.313 86.0518C314.56 94.8312 316.184 104.723 316.184 115.727V127.273H192.431V99.8523H270.363C270.303 95.8835 269.28 92.3958 267.296 89.3892C265.372 86.3224 262.756 83.9472 259.449 82.2635C256.202 80.5196 252.503 79.6477 248.354 79.6477C244.325 79.6477 240.627 80.5196 237.26 82.2635C233.892 83.9472 231.186 86.2924 229.142 89.299C227.157 92.3056 226.105 95.8234 225.985 99.8523V129.438C225.985 133.887 226.917 137.856 228.781 141.344C230.645 144.831 233.321 147.567 236.809 149.552C240.296 151.536 244.506 152.528 249.437 152.528C252.864 152.528 255.991 152.047 258.817 151.085C261.704 150.123 264.169 148.74 266.214 146.936C268.258 145.072 269.761 142.847 270.724 140.261H316.184C314.62 149.883 310.922 158.241 305.089 165.337C299.256 172.372 291.529 177.844 281.908 181.753C272.347 185.601 261.162 187.526 248.354 187.526ZM364.946 187.165C356.107 187.165 348.289 185.722 341.494 182.835C334.76 179.889 329.468 175.439 325.619 169.486C321.771 163.533 319.847 155.956 319.847 146.756C319.847 139.179 321.14 132.715 323.725 127.363C326.311 121.951 329.919 117.531 334.549 114.104C339.179 110.676 344.561 108.06 350.695 106.256C356.888 104.452 363.563 103.28 370.719 102.739C378.476 102.137 384.7 101.416 389.39 100.574C394.141 99.6719 397.568 98.4392 399.673 96.8757C401.777 95.2521 402.83 93.1174 402.83 90.4716V90.1108C402.83 86.5028 401.447 83.7367 398.681 81.8125C395.914 79.8883 392.367 78.9261 388.037 78.9261C383.287 78.9261 379.408 79.9785 376.401 82.0831C373.455 84.1276 371.681 87.2846 371.08 91.554H325.259C325.86 83.1354 328.536 75.3783 333.286 68.2827C338.097 61.1269 345.102 55.4143 354.303 51.1449C363.503 46.8153 374.988 44.6506 388.759 44.6506C398.681 44.6506 407.58 45.8232 415.458 48.1683C423.335 50.4534 430.04 53.6705 435.572 57.8196C441.104 61.9086 445.313 66.7192 448.2 72.2514C451.146 77.7235 452.619 83.6766 452.619 90.1108V185H406.077V165.517H404.994C402.228 170.688 398.861 174.868 394.892 178.055C390.984 181.242 386.504 183.557 381.453 185C376.462 186.443 370.959 187.165 364.946 187.165ZM381.182 155.776C384.97 155.776 388.518 154.994 391.825 153.43C395.193 151.867 397.929 149.612 400.034 146.665C402.138 143.719 403.19 140.141 403.19 135.932V124.386C401.868 124.928 400.454 125.439 398.951 125.92C397.508 126.401 395.944 126.852 394.261 127.273C392.637 127.694 390.893 128.085 389.029 128.445C387.225 128.806 385.331 129.137 383.347 129.438C379.498 130.039 376.341 131.031 373.876 132.414C371.471 133.737 369.667 135.391 368.464 137.375C367.321 139.299 366.75 141.464 366.75 143.869C366.75 147.718 368.103 150.664 370.809 152.709C373.515 154.753 376.973 155.776 381.182 155.776ZM548.872 46.4545V82.5341H457.59V46.4545H548.872ZM475.269 13.2614H525.059V140.442C525.059 142.366 525.39 143.99 526.051 145.312C526.713 146.575 527.735 147.537 529.118 148.199C530.501 148.8 532.275 149.101 534.44 149.101C535.943 149.101 537.687 148.92 539.671 148.56C541.716 148.199 543.219 147.898 544.181 147.658L551.397 182.655C549.172 183.316 545.985 184.128 541.836 185.09C537.747 186.052 532.876 186.684 527.224 186.984C515.799 187.586 506.207 186.413 498.45 183.467C490.693 180.46 484.86 175.74 480.952 169.305C477.043 162.871 475.149 154.813 475.269 145.132V13.2614ZM561.284 0.272722H623.701L666.636 104.903H668.801L711.736 0.272722H774.153V185H725.085V78.2045H723.642L682.511 183.557H652.926L611.795 77.483H610.352V185H561.284V0.272722ZM827.087 187.165C818.248 187.165 810.431 185.722 803.636 182.835C796.901 179.889 791.609 175.439 787.761 169.486C783.912 163.533 781.988 155.956 781.988 146.756C781.988 139.179 783.281 132.715 785.866 127.363C788.452 121.951 792.06 117.531 796.69 114.104C801.32 110.676 806.702 108.06 812.836 106.256C819.029 104.452 825.704 103.28 832.86 102.739C840.617 102.137 846.841 101.416 851.531 100.574C856.282 99.6719 859.709 98.4392 861.814 96.8757C863.918 95.2521 864.971 93.1174 864.971 90.4716V90.1108C864.971 86.5028 863.588 83.7367 860.822 81.8125C858.056 79.8883 854.508 78.9261 850.178 78.9261C845.428 78.9261 841.549 79.9785 838.543 82.0831C835.596 84.1276 833.822 87.2846 833.221 91.554H787.4C788.001 83.1354 790.677 75.3783 795.427 68.2827C800.238 61.1269 807.244 55.4143 816.444 51.1449C825.644 46.8153 837.129 44.6506 850.9 44.6506C860.822 44.6506 869.721 45.8232 877.599 48.1683C885.476 50.4534 892.181 53.6705 897.713 57.8196C903.245 61.9086 907.454 66.7192 910.341 72.2514C913.287 77.7235 914.761 83.6766 914.761 90.1108V185H868.218V165.517H867.136C864.369 170.688 861.002 174.868 857.033 178.055C853.125 181.242 848.645 183.557 843.594 185C838.603 186.443 833.101 187.165 827.087 187.165ZM843.323 155.776C847.111 155.776 850.659 154.994 853.967 153.43C857.334 151.867 860.07 149.612 862.175 146.665C864.279 143.719 865.332 140.141 865.332 135.932V124.386C864.009 124.928 862.596 125.439 861.092 125.92C859.649 126.401 858.086 126.852 856.402 127.273C854.778 127.694 853.034 128.085 851.17 128.445C849.366 128.806 847.472 129.137 845.488 129.438C841.639 130.039 838.482 131.031 836.017 132.414C833.612 133.737 831.808 135.391 830.605 137.375C829.463 139.299 828.891 141.464 828.891 143.869C828.891 147.718 830.244 150.664 832.95 152.709C835.656 154.753 839.114 155.776 843.323 155.776ZM1055.03 91.554H1009.21C1008.97 88.7277 1007.98 86.2924 1006.23 84.2479C1004.49 82.2034 1002.23 80.6399 999.467 79.5575C996.761 78.415 993.755 77.8438 990.447 77.8438C986.178 77.8438 982.51 78.6255 979.443 80.1889C976.376 81.7524 974.873 83.9773 974.933 86.8636C974.873 88.9081 975.745 90.8023 977.549 92.5462C979.413 94.29 982.991 95.643 988.283 96.6051L1016.42 101.656C1030.62 104.242 1041.17 108.602 1048.08 114.735C1055.06 120.808 1058.58 128.956 1058.64 139.179C1058.58 149.041 1055.63 157.61 1049.8 164.886C1044.03 172.102 1036.12 177.694 1026.08 181.663C1016.09 185.571 1004.7 187.526 991.89 187.526C970.724 187.526 954.157 183.196 942.191 174.537C930.285 165.878 923.64 154.453 922.257 140.261H971.686C972.347 144.651 974.512 148.049 978.18 150.454C981.908 152.799 986.599 153.972 992.251 153.972C996.821 153.972 1000.58 153.19 1003.53 151.626C1006.53 150.063 1008.07 147.838 1008.13 144.952C1008.07 142.306 1006.74 140.201 1004.16 138.638C1001.63 137.074 997.663 135.812 992.251 134.849L967.717 130.52C953.586 128.054 943.003 123.364 935.967 116.449C928.932 109.534 925.444 100.634 925.504 89.75C925.444 80.1288 927.97 71.9808 933.081 65.3061C938.252 58.5713 945.618 53.46 955.18 49.9723C964.801 46.4245 976.196 44.6506 989.365 44.6506C1009.39 44.6506 1025.17 48.7997 1036.72 57.098C1048.32 65.3963 1054.43 76.8816 1055.03 91.554ZM1150.18 46.4545V82.5341H1058.9V46.4545H1150.18ZM1076.57 13.2614H1126.36V140.442C1126.36 142.366 1126.7 143.99 1127.36 145.312C1128.02 146.575 1129.04 147.537 1130.42 148.199C1131.81 148.8 1133.58 149.101 1135.75 149.101C1137.25 149.101 1138.99 148.92 1140.98 148.56C1143.02 148.199 1144.52 147.898 1145.49 147.658L1152.7 182.655C1150.48 183.316 1147.29 184.128 1143.14 185.09C1139.05 186.052 1134.18 186.684 1128.53 186.984C1117.1 187.586 1107.51 186.413 1099.76 183.467C1092 180.46 1086.17 175.74 1082.26 169.305C1078.35 162.871 1076.45 154.813 1076.57 145.132V13.2614ZM1225.23 187.526C1210.44 187.526 1197.69 184.699 1186.99 179.047C1176.34 173.334 1168.14 165.156 1162.36 154.513C1156.65 143.809 1153.79 131.001 1153.79 116.088C1153.79 101.777 1156.68 89.2689 1162.45 78.5653C1168.23 67.8617 1176.37 59.5334 1186.9 53.5803C1197.42 47.6271 1209.84 44.6506 1224.15 44.6506C1234.61 44.6506 1244.08 46.2741 1252.56 49.5213C1261.04 52.7685 1268.29 57.4889 1274.3 63.6825C1280.31 69.8161 1284.94 77.2725 1288.19 86.0518C1291.44 94.8312 1293.06 104.723 1293.06 115.727V127.273H1169.31V99.8523H1247.24C1247.18 95.8835 1246.16 92.3958 1244.17 89.3892C1242.25 86.3224 1239.63 83.9472 1236.33 82.2635C1233.08 80.5196 1229.38 79.6477 1225.23 79.6477C1221.2 79.6477 1217.51 80.5196 1214.14 82.2635C1210.77 83.9472 1208.06 86.2924 1206.02 89.299C1204.04 92.3056 1202.98 95.8234 1202.86 99.8523V129.438C1202.86 133.887 1203.79 137.856 1205.66 141.344C1207.52 144.831 1210.2 147.567 1213.69 149.552C1217.17 151.536 1221.38 152.528 1226.31 152.528C1229.74 152.528 1232.87 152.047 1235.7 151.085C1238.58 150.123 1241.05 148.74 1243.09 146.936C1245.14 145.072 1246.64 142.847 1247.6 140.261H1293.06C1291.5 149.883 1287.8 158.241 1281.97 165.337C1276.13 172.372 1268.41 177.844 1258.79 181.753C1249.23 185.601 1238.04 187.526 1225.23 187.526ZM1303.22 185V46.4545H1351.57V72.7926H1353.01C1355.53 63.0511 1359.53 55.9254 1365.01 51.4155C1370.54 46.9055 1377 44.6506 1384.4 44.6506C1386.56 44.6506 1388.7 44.831 1390.8 45.1918C1392.97 45.4924 1395.04 45.9434 1397.03 46.5447V89.0284C1394.56 88.1866 1391.52 87.5552 1387.92 87.1342C1384.31 86.7133 1381.21 86.5028 1378.63 86.5028C1373.75 86.5028 1369.36 87.6153 1365.46 89.8402C1361.61 92.005 1358.57 95.0717 1356.35 99.0405C1354.12 102.949 1353.01 107.549 1353.01 112.841V185H1303.22Z" fill="#1F1F1F"/>
<path d="M0.90625 185H-3.09375V189H0.90625V185ZM0.90625 0.272722V-3.72728H-3.09375V0.272722H0.90625ZM51.0568 0.272722H55.0568V-3.72728H51.0568V0.272722ZM51.0568 72.4318H47.0568V76.4318H51.0568V72.4318ZM117.443 72.4318V76.4318H121.443V72.4318H117.443ZM117.443 0.272722V-3.72728H113.443V0.272722H117.443ZM167.594 0.272722H171.594V-3.72728H167.594V0.272722ZM167.594 185V189H171.594V185H167.594ZM117.443 185H113.443V189H117.443V185ZM117.443 112.841H121.443V108.841H117.443V112.841ZM51.0568 112.841V108.841H47.0568V112.841H51.0568ZM51.0568 185V189H55.0568V185H51.0568ZM4.90625 185V0.272722H-3.09375V185H4.90625ZM0.90625 4.27272H51.0568V-3.72728H0.90625V4.27272ZM47.0568 0.272722V72.4318H55.0568V0.272722H47.0568ZM51.0568 76.4318H117.443V68.4318H51.0568V76.4318ZM121.443 72.4318V0.272722H113.443V72.4318H121.443ZM117.443 4.27272H167.594V-3.72728H117.443V4.27272ZM163.594 0.272722V185H171.594V0.272722H163.594ZM167.594 181H117.443V189H167.594V181ZM121.443 185V112.841H113.443V185H121.443ZM117.443 108.841H51.0568V116.841H117.443V108.841ZM47.0568 112.841V185H55.0568V112.841H47.0568ZM51.0568 181H0.90625V189H51.0568V181ZM210.11 179.047L208.218 182.571L208.23 182.578L208.242 182.584L210.11 179.047ZM185.486 154.513L181.957 156.396L181.963 156.408L181.969 156.42L185.486 154.513ZM185.576 78.5653L189.096 80.4641L189.096 80.4641L185.576 78.5653ZM210.02 53.5803L211.989 57.0618L211.989 57.0618L210.02 53.5803ZM275.684 49.5213L277.115 45.7859L277.115 45.7859L275.684 49.5213ZM297.422 63.6825L294.552 66.4689L294.559 66.4758L294.566 66.4828L297.422 63.6825ZM311.313 86.0518L307.561 87.4394L307.561 87.4394L311.313 86.0518ZM316.184 127.273V131.273H320.184V127.273H316.184ZM192.431 127.273H188.431V131.273H192.431V127.273ZM192.431 99.8523V95.8523H188.431V99.8523H192.431ZM270.363 99.8523V103.852H274.424L274.362 99.7917L270.363 99.8523ZM267.296 89.3892L263.908 91.5152L263.932 91.5542L263.958 91.5926L267.296 89.3892ZM259.449 82.2635L257.556 85.7875L257.595 85.8082L257.634 85.8281L259.449 82.2635ZM237.26 82.2635L239.049 85.8412L239.074 85.8285L239.099 85.8155L237.26 82.2635ZM229.142 89.299L225.834 87.0498L225.819 87.0726L225.803 87.0956L229.142 89.299ZM225.985 99.8523L221.987 99.7329L221.985 99.7926V99.8523H225.985ZM228.781 141.344L225.253 143.229L225.253 143.229L228.781 141.344ZM236.809 149.552L234.831 153.029L234.831 153.029L236.809 149.552ZM258.817 151.085L257.552 147.29L257.54 147.295L257.528 147.299L258.817 151.085ZM266.214 146.936L268.86 149.935L268.885 149.914L268.909 149.892L266.214 146.936ZM270.724 140.261V136.261H267.944L266.975 138.866L270.724 140.261ZM316.184 140.261L320.132 140.903L320.886 136.261H316.184V140.261ZM305.089 165.337L308.169 167.89L308.174 167.883L308.179 167.877L305.089 165.337ZM281.908 181.753L283.402 185.464L283.414 185.459L281.908 181.753ZM248.354 183.526C234.07 183.526 221.991 180.798 211.978 175.51L208.242 182.584C219.636 188.601 233.053 191.526 248.354 191.526V183.526ZM212.002 175.522C202.047 170.18 194.403 162.565 189.002 152.606L181.969 156.42C188.113 167.748 196.885 176.489 208.218 182.571L212.002 175.522ZM189.014 152.629C183.674 142.624 180.917 130.493 180.917 116.088H172.917C172.917 131.509 175.872 144.995 181.957 156.396L189.014 152.629ZM180.917 116.088C180.917 102.322 183.69 90.489 189.096 80.4641L182.055 76.6666C175.916 88.0488 172.917 101.231 172.917 116.088H180.917ZM189.096 80.4641C194.514 70.4195 202.126 62.6416 211.989 57.0618L208.05 50.0987C196.867 56.4251 188.183 65.304 182.055 76.6666L189.096 80.4641ZM211.989 57.0618C221.81 51.5061 233.523 48.6506 247.272 48.6506V40.6506C232.397 40.6506 219.276 43.7482 208.05 50.0987L211.989 57.0618ZM247.272 48.6506C257.319 48.6506 266.296 50.209 274.254 53.2567L277.115 45.7859C268.116 42.3393 258.15 40.6506 247.272 40.6506V48.6506ZM274.254 53.2567C282.218 56.3069 288.965 60.714 294.552 66.4689L300.292 60.8962C293.853 54.2638 286.108 49.23 277.115 45.7859L274.254 53.2567ZM294.566 66.4828C300.15 72.1788 304.492 79.1408 307.561 87.4394L315.065 84.6643C311.64 75.4042 306.721 67.4533 300.279 60.8822L294.566 66.4828ZM307.561 87.4394C310.618 95.7042 312.184 105.115 312.184 115.727H320.184C320.184 104.331 318.502 93.9582 315.065 84.6643L307.561 87.4394ZM312.184 115.727V127.273H320.184V115.727H312.184ZM316.184 123.273H192.431V131.273H316.184V123.273ZM196.431 127.273V99.8523H188.431V127.273H196.431ZM192.431 103.852H270.363V95.8523H192.431V103.852ZM274.362 99.7917C274.292 95.1407 273.081 90.8931 270.634 87.1858L263.958 91.5926C265.479 93.8986 266.313 96.6263 266.363 99.9129L274.362 99.7917ZM270.684 87.2632C268.365 83.5674 265.199 80.7023 261.263 78.6988L257.634 85.8281C260.313 87.1921 262.378 89.0774 263.908 91.5152L270.684 87.2632ZM261.341 78.7395C257.442 76.6456 253.08 75.6477 248.354 75.6477V83.6477C251.927 83.6477 254.961 84.3937 257.556 85.7875L261.341 78.7395ZM248.354 75.6477C243.726 75.6477 239.392 76.655 235.42 78.7115L239.099 85.8155C241.863 84.3843 244.924 83.6477 248.354 83.6477V75.6477ZM235.471 78.6858C231.515 80.6639 228.277 83.4573 225.834 87.0498L232.45 91.5482C234.096 89.1275 236.27 87.2305 239.049 85.8412L235.471 78.6858ZM225.803 87.0956C223.363 90.7939 222.126 95.0524 221.987 99.7329L229.983 99.9716C230.084 96.5944 230.952 93.8174 232.48 91.5024L225.803 87.0956ZM221.985 99.8523V129.438H229.985V99.8523H221.985ZM221.985 129.438C221.985 134.462 223.042 139.092 225.253 143.229L232.309 139.458C230.792 136.62 229.985 133.313 229.985 129.438H221.985ZM225.253 143.229C227.479 147.393 230.697 150.676 234.831 153.029L238.787 146.075C235.945 144.458 233.811 142.27 232.309 139.458L225.253 143.229ZM234.831 153.029C239.045 155.426 243.97 156.528 249.437 156.528V148.528C245.042 148.528 241.548 147.646 238.787 146.075L234.831 153.029ZM249.437 156.528C253.239 156.528 256.809 155.994 260.106 154.872L257.528 147.299C255.173 148.1 252.489 148.528 249.437 148.528V156.528ZM260.082 154.88C263.419 153.768 266.369 152.134 268.86 149.935L263.567 143.937C261.969 145.347 259.989 146.478 257.552 147.29L260.082 154.88ZM268.909 149.892C271.422 147.6 273.288 144.841 274.472 141.656L266.975 138.866C266.235 140.854 265.094 142.544 263.519 143.98L268.909 149.892ZM270.724 144.261H316.184V136.261H270.724V144.261ZM312.236 139.62C310.778 148.588 307.356 156.281 301.999 162.797L308.179 167.877C314.489 160.202 318.462 151.177 320.132 140.903L312.236 139.62ZM302.01 162.784C296.653 169.245 289.497 174.353 280.403 178.047L283.414 185.459C293.562 181.336 301.86 175.499 308.169 167.89L302.01 162.784ZM280.415 178.042C271.428 181.659 260.771 183.526 248.354 183.526V191.526C261.554 191.526 273.266 189.543 283.402 185.464L280.415 178.042ZM341.494 182.835L339.891 186.5L339.911 186.508L339.931 186.517L341.494 182.835ZM325.619 169.486L322.26 171.657L322.26 171.657L325.619 169.486ZM323.725 127.363L327.327 129.103L327.331 129.095L327.334 129.087L323.725 127.363ZM334.549 114.104L336.929 117.319L336.929 117.319L334.549 114.104ZM350.695 106.256L349.576 102.416L349.566 102.419L350.695 106.256ZM370.719 102.739L371.021 106.727L371.028 106.727L370.719 102.739ZM389.39 100.574L390.097 104.511L390.116 104.507L390.136 104.504L389.39 100.574ZM399.673 96.8757L402.058 100.087L402.087 100.065L402.116 100.043L399.673 96.8757ZM398.681 81.8125L396.396 85.0961L396.396 85.0961L398.681 81.8125ZM376.401 82.0831L378.682 85.3695L378.689 85.3648L378.695 85.36L376.401 82.0831ZM371.08 91.554V95.554H374.556L375.041 92.1118L371.08 91.554ZM325.259 91.554L321.269 91.269L320.963 95.554H325.259V91.554ZM333.286 68.2827L329.967 66.051L329.962 66.0574L333.286 68.2827ZM354.303 51.1449L355.986 54.7732L355.996 54.7687L356.006 54.7642L354.303 51.1449ZM415.458 48.1683L414.316 52.002L414.33 52.006L414.343 52.01L415.458 48.1683ZM435.572 57.8196L433.172 61.0196L433.183 61.028L433.194 61.0363L435.572 57.8196ZM448.2 72.2514L444.653 74.1017L444.665 74.1248L444.678 74.1478L448.2 72.2514ZM452.619 185V189H456.619V185H452.619ZM406.077 185H402.077V189H406.077V185ZM406.077 165.517H410.077V161.517H406.077V165.517ZM404.994 165.517V161.517H402.598L401.467 163.63L404.994 165.517ZM394.892 178.055L392.388 174.936L392.376 174.945L392.364 174.955L394.892 178.055ZM381.453 185L380.354 181.154L380.341 181.157L381.453 185ZM391.825 153.43L390.141 149.802L390.128 149.808L390.116 149.814L391.825 153.43ZM400.034 146.665L396.779 144.341L396.779 144.341L400.034 146.665ZM403.19 124.386H407.19V118.428L401.676 120.684L403.19 124.386ZM398.951 125.92L397.732 122.11L397.709 122.117L397.686 122.125L398.951 125.92ZM394.261 127.273L393.291 123.392L393.274 123.396L393.257 123.401L394.261 127.273ZM389.029 128.445L388.269 124.518L388.257 124.521L388.245 124.523L389.029 128.445ZM383.347 129.438L382.747 125.483L382.738 125.484L382.729 125.485L383.347 129.438ZM373.876 132.414L375.804 135.919L375.818 135.911L375.833 135.903L373.876 132.414ZM368.464 137.375L365.043 135.302L365.034 135.317L365.024 135.333L368.464 137.375ZM370.809 152.709L373.22 149.517L373.22 149.517L370.809 152.709ZM364.946 183.165C356.54 183.165 349.271 181.793 343.058 179.154L339.931 186.517C347.308 189.65 355.673 191.165 364.946 191.165V183.165ZM343.098 179.171C337.054 176.526 332.385 172.583 328.979 167.314L322.26 171.657C326.551 178.295 332.465 183.251 339.891 186.5L343.098 179.171ZM328.979 167.314C325.656 162.175 323.847 155.412 323.847 146.756H315.847C315.847 156.5 317.886 164.89 322.26 171.657L328.979 167.314ZM323.847 146.756C323.847 139.621 325.065 133.784 327.327 129.103L320.124 125.623C317.214 131.645 315.847 138.737 315.847 146.756H323.847ZM327.334 129.087C329.65 124.24 332.846 120.341 336.929 117.319L332.169 110.889C326.992 114.721 322.972 119.662 320.116 125.639L327.334 129.087ZM336.929 117.319C341.143 114.199 346.091 111.78 351.823 110.094L349.566 102.419C343.031 104.341 337.216 107.153 332.169 110.889L336.929 117.319ZM351.813 110.097C357.713 108.379 364.111 107.25 371.021 106.727L370.417 98.75C363.015 99.3098 356.064 100.526 349.576 102.416L351.813 110.097ZM371.028 106.727C378.847 106.121 385.219 105.386 390.097 104.511L388.683 96.6368C384.18 97.445 378.105 98.154 370.41 98.7506L371.028 106.727ZM390.136 104.504C395.061 103.569 399.214 102.199 402.058 100.087L397.287 93.6647C395.922 94.6789 393.22 95.7751 388.644 96.6441L390.136 104.504ZM402.116 100.043C405.197 97.666 406.83 94.3641 406.83 90.4716H398.83C398.83 91.8707 398.358 92.8382 397.23 93.7086L402.116 100.043ZM406.83 90.4716V90.1108H398.83V90.4716H406.83ZM406.83 90.1108C406.83 85.3027 404.892 81.2612 400.965 78.5289L396.396 85.0961C398.001 86.2123 398.83 87.703 398.83 90.1108H406.83ZM400.965 78.5289C397.36 76.0213 392.951 74.9261 388.037 74.9261V82.9261C391.782 82.9261 394.469 83.7552 396.396 85.0961L400.965 78.5289ZM388.037 74.9261C382.706 74.9261 377.96 76.1096 374.108 78.8062L378.695 85.36C380.856 83.8473 383.867 82.9261 388.037 82.9261V74.9261ZM374.121 78.7967C370.076 81.6038 367.842 85.8645 367.119 90.9961L375.041 92.1118C375.52 88.7046 376.834 86.6514 378.682 85.3695L374.121 78.7967ZM371.08 87.554H325.259V95.554H371.08V87.554ZM329.248 91.839C329.8 84.1226 332.242 77.0328 336.61 70.508L329.962 66.0574C324.83 73.7238 321.92 82.1483 321.269 91.269L329.248 91.839ZM336.606 70.5143C340.942 64.0644 347.331 58.79 355.986 54.7732L352.619 47.5165C342.874 52.0386 335.252 58.1894 329.967 66.051L336.606 70.5143ZM356.006 54.7642C364.52 50.7577 375.38 48.6506 388.759 48.6506V40.6506C374.597 40.6506 362.486 42.873 352.599 47.5256L356.006 54.7642ZM388.759 48.6506C398.371 48.6506 406.877 49.7872 414.316 52.002L416.599 44.3346C408.284 41.8591 398.99 40.6506 388.759 40.6506V48.6506ZM414.343 52.01C421.841 54.1849 428.091 57.2086 433.172 61.0196L437.972 54.6196C431.989 50.1323 424.829 46.7218 416.572 44.3267L414.343 52.01ZM433.194 61.0363C438.289 64.8019 442.076 69.161 444.653 74.1017L451.746 70.4012C448.551 64.2775 443.919 59.0153 437.949 54.6029L433.194 61.0363ZM444.678 74.1478C447.299 79.0161 448.619 84.3143 448.619 90.1108H456.619C456.619 83.0389 454.993 76.4309 451.722 70.355L444.678 74.1478ZM448.619 90.1108V185H456.619V90.1108H448.619ZM452.619 181H406.077V189H452.619V181ZM410.077 185V165.517H402.077V185H410.077ZM406.077 161.517H404.994V169.517H406.077V161.517ZM401.467 163.63C398.917 168.398 395.877 172.134 392.388 174.936L397.397 181.174C401.845 177.601 405.54 172.979 408.522 167.404L401.467 163.63ZM392.364 174.955C388.894 177.784 384.905 179.854 380.354 181.154L382.551 188.846C388.102 187.26 393.073 184.699 397.42 181.155L392.364 174.955ZM380.341 181.157C375.763 182.481 370.641 183.165 364.946 183.165V191.165C371.278 191.165 377.16 190.405 382.564 188.843L380.341 181.157ZM381.182 159.776C385.54 159.776 389.674 158.872 393.535 157.047L390.116 149.814C387.362 151.116 384.401 151.776 381.182 151.776V159.776ZM393.51 157.058C397.488 155.211 400.771 152.514 403.288 148.99L396.779 144.341C395.086 146.709 392.898 148.522 390.141 149.802L393.51 157.058ZM403.288 148.99C405.953 145.26 407.19 140.835 407.19 135.932H399.19C399.19 139.447 398.323 142.178 396.779 144.341L403.288 148.99ZM407.19 135.932V124.386H399.19V135.932H407.19ZM401.676 120.684C400.459 121.182 399.146 121.658 397.732 122.11L400.17 129.729C401.763 129.22 403.276 128.673 404.705 128.089L401.676 120.684ZM397.686 122.125C396.353 122.57 394.889 122.993 393.291 123.392L395.231 131.153C397 130.711 398.663 130.232 400.216 129.714L397.686 122.125ZM393.257 123.401C391.724 123.798 390.062 124.171 388.269 124.518L389.789 132.372C391.725 131.998 393.551 131.589 395.265 131.145L393.257 123.401ZM388.245 124.523C386.508 124.87 384.675 125.191 382.747 125.483L383.946 133.392C385.987 133.083 387.943 132.742 389.814 132.368L388.245 124.523ZM382.729 125.485C378.575 126.134 374.924 127.24 371.919 128.925L375.833 135.903C377.759 134.822 380.421 133.943 383.964 133.39L382.729 125.485ZM371.948 128.909C369.041 130.508 366.671 132.616 365.043 135.302L371.885 139.448C372.662 138.165 373.9 136.966 375.804 135.919L371.948 128.909ZM365.024 135.333C363.488 137.921 362.75 140.801 362.75 143.869H370.75C370.75 142.127 371.155 140.677 371.903 139.417L365.024 135.333ZM362.75 143.869C362.75 148.779 364.547 152.991 368.398 155.9L373.22 149.517C371.66 148.338 370.75 146.657 370.75 143.869H362.75ZM368.398 155.9C371.951 158.585 376.316 159.776 381.182 159.776V151.776C377.629 151.776 375.079 150.921 373.22 149.517L368.398 155.9ZM548.872 46.4545H552.872V42.4545H548.872V46.4545ZM548.872 82.5341V86.5341H552.872V82.5341H548.872ZM457.59 82.5341H453.59V86.5341H457.59V82.5341ZM457.59 46.4545V42.4545H453.59V46.4545H457.59ZM475.269 13.2614V9.26136H471.269V13.2614H475.269ZM525.059 13.2614H529.059V9.26136H525.059V13.2614ZM526.051 145.312L522.474 147.101L522.49 147.135L522.508 147.169L526.051 145.312ZM529.118 148.199L527.392 151.807L527.457 151.838L527.523 151.867L529.118 148.199ZM539.671 148.56L538.976 144.621L538.966 144.622L538.956 144.624L539.671 148.56ZM544.181 147.658L548.099 146.85L547.257 142.766L543.211 143.777L544.181 147.658ZM551.397 182.655L552.537 186.489L556.056 185.443L555.315 181.847L551.397 182.655ZM541.836 185.09L540.932 181.194L540.92 181.197L541.836 185.09ZM527.224 186.984L527.434 190.979L527.436 190.979L527.224 186.984ZM498.45 183.467L497.005 187.196L497.017 187.201L497.03 187.206L498.45 183.467ZM480.952 169.305L477.533 171.382L477.533 171.382L480.952 169.305ZM475.269 145.132L479.269 145.182L479.269 145.157V145.132H475.269ZM544.872 46.4545V82.5341H552.872V46.4545H544.872ZM548.872 78.5341H457.59V86.5341H548.872V78.5341ZM461.59 82.5341V46.4545H453.59V82.5341H461.59ZM457.59 50.4545H548.872V42.4545H457.59V50.4545ZM475.269 17.2614H525.059V9.26136H475.269V17.2614ZM521.059 13.2614V140.442H529.059V13.2614H521.059ZM521.059 140.442C521.059 142.807 521.464 145.082 522.474 147.101L529.629 143.524C529.316 142.898 529.059 141.925 529.059 140.442H521.059ZM522.508 147.169C523.601 149.255 525.292 150.803 527.392 151.807L530.844 144.59C530.178 144.272 529.824 143.895 529.595 143.456L522.508 147.169ZM527.523 151.867C529.578 152.761 531.947 153.101 534.44 153.101V145.101C532.603 145.101 531.424 144.84 530.713 144.531L527.523 151.867ZM534.44 153.101C536.248 153.101 538.241 152.885 540.387 152.495L538.956 144.624C537.133 144.956 535.638 145.101 534.44 145.101V153.101ZM540.366 152.499C542.426 152.135 544.045 151.815 545.151 151.538L543.211 143.777C542.393 143.982 541.005 144.262 538.976 144.621L540.366 152.499ZM540.264 148.465L547.48 183.463L555.315 181.847L548.099 146.85L540.264 148.465ZM550.257 178.821C548.15 179.447 545.056 180.237 540.932 181.194L542.74 188.987C546.914 188.019 550.195 187.185 552.537 186.489L550.257 178.821ZM540.92 181.197C537.126 182.089 532.503 182.698 527.011 182.99L527.436 190.979C533.25 190.669 538.368 190.015 542.752 188.984L540.92 181.197ZM527.014 182.99C515.947 183.572 506.951 182.417 499.871 179.727L497.03 187.206C505.464 190.41 515.651 191.599 527.434 190.979L527.014 182.99ZM499.896 179.737C492.869 177.013 487.773 172.83 484.37 167.229L477.533 171.382C481.948 178.649 488.517 183.906 497.005 187.196L499.896 179.737ZM484.37 167.229C480.948 161.594 479.155 154.325 479.269 145.182L471.27 145.082C471.143 155.302 473.139 164.148 477.533 171.382L484.37 167.229ZM479.269 145.132V13.2614H471.269V145.132H479.269ZM561.284 0.272722V-3.72728H557.284V0.272722H561.284ZM623.701 0.272722L627.402 -1.24578L626.384 -3.72728H623.701V0.272722ZM666.636 104.903L662.936 106.422L663.954 108.903H666.636V104.903ZM668.801 104.903V108.903H671.483L672.501 106.422L668.801 104.903ZM711.736 0.272722V-3.72728H709.053L708.035 -1.24578L711.736 0.272722ZM774.153 0.272722H778.153V-3.72728H774.153V0.272722ZM774.153 185V189H778.153V185H774.153ZM725.085 185H721.085V189H725.085V185ZM725.085 78.2045H729.085V74.2045H725.085V78.2045ZM723.642 78.2045V74.2045H720.909L719.916 76.7498L723.642 78.2045ZM682.511 183.557V187.557H685.243L686.237 185.012L682.511 183.557ZM652.926 183.557L649.196 185.003L650.187 187.557H652.926V183.557ZM611.795 77.483L615.525 76.0368L614.534 73.483H611.795V77.483ZM610.352 77.483V73.483H606.352V77.483H610.352ZM610.352 185V189H614.352V185H610.352ZM561.284 185H557.284V189H561.284V185ZM561.284 4.27272H623.701V-3.72728H561.284V4.27272ZM620.001 1.79123L662.936 106.422L670.337 103.385L627.402 -1.24578L620.001 1.79123ZM666.636 108.903H668.801V100.903H666.636V108.903ZM672.501 106.422L715.436 1.79123L708.035 -1.24578L665.1 103.385L672.501 106.422ZM711.736 4.27272H774.153V-3.72728H711.736V4.27272ZM770.153 0.272722V185H778.153V0.272722H770.153ZM774.153 181H725.085V189H774.153V181ZM729.085 185V78.2045H721.085V185H729.085ZM725.085 74.2045H723.642V82.2045H725.085V74.2045ZM719.916 76.7498L678.785 182.102L686.237 185.012L727.368 79.6593L719.916 76.7498ZM682.511 179.557H652.926V187.557H682.511V179.557ZM656.655 182.111L615.525 76.0368L608.066 78.9291L649.196 185.003L656.655 182.111ZM611.795 73.483H610.352V81.483H611.795V73.483ZM606.352 77.483V185H614.352V77.483H606.352ZM610.352 181H561.284V189H610.352V181ZM565.284 185V0.272722H557.284V185H565.284ZM803.636 182.835L802.032 186.5L802.052 186.508L802.072 186.517L803.636 182.835ZM787.761 169.486L784.401 171.657L784.401 171.657L787.761 169.486ZM785.866 127.363L789.468 129.103L789.472 129.095L789.476 129.087L785.866 127.363ZM796.69 114.104L799.07 117.319L799.07 117.319L796.69 114.104ZM812.836 106.256L811.717 102.416L811.707 102.419L812.836 106.256ZM832.86 102.739L833.162 106.727L833.169 106.727L832.86 102.739ZM851.531 100.574L852.238 104.511L852.258 104.507L852.277 104.504L851.531 100.574ZM861.814 96.8757L864.199 100.087L864.228 100.065L864.257 100.043L861.814 96.8757ZM860.822 81.8125L858.537 85.0961L858.537 85.0961L860.822 81.8125ZM838.543 82.0831L840.823 85.3695L840.83 85.3648L840.836 85.36L838.543 82.0831ZM833.221 91.554V95.554H836.697L837.182 92.1118L833.221 91.554ZM787.4 91.554L783.41 91.269L783.104 95.554H787.4V91.554ZM795.427 68.2827L792.108 66.051L792.104 66.0574L795.427 68.2827ZM816.444 51.1449L818.128 54.7732L818.137 54.7687L818.147 54.7642L816.444 51.1449ZM877.599 48.1683L876.457 52.002L876.471 52.006L876.484 52.01L877.599 48.1683ZM897.713 57.8196L895.313 61.0196L895.324 61.028L895.335 61.0363L897.713 57.8196ZM910.341 72.2514L906.794 74.1017L906.807 74.1248L906.819 74.1478L910.341 72.2514ZM914.761 185V189H918.761V185H914.761ZM868.218 185H864.218V189H868.218V185ZM868.218 165.517H872.218V161.517H868.218V165.517ZM867.136 165.517V161.517H864.739L863.608 163.63L867.136 165.517ZM857.033 178.055L854.529 174.936L854.517 174.945L854.506 174.955L857.033 178.055ZM843.594 185L842.495 181.154L842.483 181.157L843.594 185ZM853.967 153.43L852.282 149.802L852.27 149.808L852.257 149.814L853.967 153.43ZM862.175 146.665L858.92 144.341L858.92 144.341L862.175 146.665ZM865.332 124.386H869.332V118.428L863.817 120.684L865.332 124.386ZM861.092 125.92L859.873 122.11L859.85 122.117L859.827 122.125L861.092 125.92ZM856.402 127.273L855.432 123.392L855.415 123.396L855.398 123.401L856.402 127.273ZM851.17 128.445L850.41 124.518L850.398 124.521L850.386 124.523L851.17 128.445ZM845.488 129.438L844.889 125.483L844.879 125.484L844.87 125.485L845.488 129.438ZM836.017 132.414L837.945 135.919L837.959 135.911L837.974 135.903L836.017 132.414ZM830.605 137.375L827.184 135.302L827.175 135.317L827.166 135.333L830.605 137.375ZM832.95 152.709L835.362 149.517L835.362 149.517L832.95 152.709ZM827.087 183.165C818.681 183.165 811.412 181.793 805.199 179.154L802.072 186.517C809.449 189.65 817.814 191.165 827.087 191.165V183.165ZM805.239 179.171C799.195 176.526 794.526 172.583 791.12 167.314L784.401 171.657C788.692 178.295 794.606 183.251 802.032 186.5L805.239 179.171ZM791.12 167.314C787.797 162.175 785.988 155.412 785.988 146.756H777.988C777.988 156.5 780.027 164.89 784.401 171.657L791.12 167.314ZM785.988 146.756C785.988 139.621 787.206 133.784 789.468 129.103L782.265 125.623C779.355 131.645 777.988 138.737 777.988 146.756H785.988ZM789.476 129.087C791.791 124.24 794.987 120.341 799.07 117.319L794.31 110.889C789.133 114.721 785.113 119.662 782.257 125.639L789.476 129.087ZM799.07 117.319C803.284 114.199 808.232 111.78 813.965 110.094L811.707 102.419C805.173 104.341 799.357 107.153 794.31 110.889L799.07 117.319ZM813.954 110.097C819.854 108.379 826.252 107.25 833.162 106.727L832.558 98.75C825.156 99.3098 818.205 100.526 811.717 102.416L813.954 110.097ZM833.169 106.727C840.988 106.121 847.36 105.386 852.238 104.511L850.824 96.6368C846.321 97.445 840.247 98.154 832.551 98.7506L833.169 106.727ZM852.277 104.504C857.202 103.569 861.355 102.199 864.199 100.087L859.429 93.6647C858.063 94.6789 855.361 95.7751 850.785 96.6441L852.277 104.504ZM864.257 100.043C867.338 97.666 868.971 94.3641 868.971 90.4716H860.971C860.971 91.8707 860.499 92.8382 859.371 93.7086L864.257 100.043ZM868.971 90.4716V90.1108H860.971V90.4716H868.971ZM868.971 90.1108C868.971 85.3027 867.034 81.2612 863.106 78.5289L858.537 85.0961C860.142 86.2123 860.971 87.703 860.971 90.1108H868.971ZM863.106 78.5289C859.501 76.0213 855.092 74.9261 850.178 74.9261V82.9261C853.923 82.9261 856.61 83.7552 858.537 85.0961L863.106 78.5289ZM850.178 74.9261C844.847 74.9261 840.101 76.1096 836.249 78.8062L840.836 85.36C842.997 83.8473 846.008 82.9261 850.178 82.9261V74.9261ZM836.262 78.7967C832.217 81.6038 829.983 85.8645 829.26 90.9961L837.182 92.1118C837.662 88.7046 838.975 86.6514 840.823 85.3695L836.262 78.7967ZM833.221 87.554H787.4V95.554H833.221V87.554ZM791.39 91.839C791.941 84.1226 794.383 77.0328 798.751 70.508L792.104 66.0574C786.971 73.7238 784.061 82.1483 783.41 91.269L791.39 91.839ZM798.747 70.5143C803.083 64.0644 809.472 58.79 818.128 54.7732L814.76 47.5165C805.015 52.0386 797.393 58.1894 792.108 66.051L798.747 70.5143ZM818.147 54.7642C826.661 50.7577 837.521 48.6506 850.9 48.6506V40.6506C836.738 40.6506 824.627 42.873 814.741 47.5256L818.147 54.7642ZM850.9 48.6506C860.512 48.6506 869.018 49.7872 876.457 52.002L878.74 44.3346C870.425 41.8591 861.131 40.6506 850.9 40.6506V48.6506ZM876.484 52.01C883.982 54.1849 890.232 57.2086 895.313 61.0196L900.113 54.6196C894.13 50.1323 886.97 46.7218 878.713 44.3267L876.484 52.01ZM895.335 61.0363C900.43 64.8019 904.217 69.161 906.794 74.1017L913.887 70.4012C910.692 64.2775 906.06 59.0153 900.091 54.6029L895.335 61.0363ZM906.819 74.1478C909.44 79.0161 910.761 84.3143 910.761 90.1108H918.761C918.761 83.0389 917.134 76.4309 913.863 70.355L906.819 74.1478ZM910.761 90.1108V185H918.761V90.1108H910.761ZM914.761 181H868.218V189H914.761V181ZM872.218 185V165.517H864.218V185H872.218ZM868.218 161.517H867.136V169.517H868.218V161.517ZM863.608 163.63C861.058 168.398 858.018 172.134 854.529 174.936L859.538 181.174C863.986 177.601 867.681 172.979 870.663 167.404L863.608 163.63ZM854.506 174.955C851.035 177.784 847.046 179.854 842.495 181.154L844.693 188.846C850.243 187.26 855.214 184.699 859.561 181.155L854.506 174.955ZM842.483 181.157C837.904 182.481 832.782 183.165 827.087 183.165V191.165C833.419 191.165 839.301 190.405 844.705 188.843L842.483 181.157ZM843.323 159.776C847.681 159.776 851.815 158.872 855.676 157.047L852.257 149.814C849.503 151.116 846.542 151.776 843.323 151.776V159.776ZM855.651 157.058C859.629 155.211 862.912 152.514 865.43 148.99L858.92 144.341C857.228 146.709 855.039 148.522 852.282 149.802L855.651 157.058ZM865.43 148.99C868.094 145.26 869.332 140.835 869.332 135.932H861.332C861.332 139.447 860.464 142.178 858.92 144.341L865.43 148.99ZM869.332 135.932V124.386H861.332V135.932H869.332ZM863.817 120.684C862.601 121.182 861.287 121.658 859.873 122.11L862.311 129.729C863.904 129.22 865.417 128.673 866.846 128.089L863.817 120.684ZM859.827 122.125C858.494 122.57 857.03 122.993 855.432 123.392L857.372 131.153C859.142 130.711 860.804 130.232 862.357 129.714L859.827 122.125ZM855.398 123.401C853.865 123.798 852.203 124.171 850.41 124.518L851.93 132.372C853.866 131.998 855.692 131.589 857.406 131.145L855.398 123.401ZM850.386 124.523C848.649 124.87 846.817 125.191 844.889 125.483L846.087 133.392C848.128 133.083 850.084 132.742 851.955 132.368L850.386 124.523ZM844.87 125.485C840.717 126.134 837.065 127.24 834.06 128.925L837.974 135.903C839.9 134.822 842.562 133.943 846.105 133.39L844.87 125.485ZM834.089 128.909C831.182 130.508 828.812 132.616 827.184 135.302L834.026 139.448C834.803 138.165 836.041 136.966 837.945 135.919L834.089 128.909ZM827.166 135.333C825.629 137.921 824.891 140.801 824.891 143.869H832.891C832.891 142.127 833.296 140.677 834.044 139.417L827.166 135.333ZM824.891 143.869C824.891 148.779 826.688 152.991 830.539 155.9L835.362 149.517C833.801 148.338 832.891 146.657 832.891 143.869H824.891ZM830.539 155.9C834.092 158.585 838.457 159.776 843.323 159.776V151.776C839.77 151.776 837.22 150.921 835.362 149.517L830.539 155.9ZM1055.03 91.554V95.554H1059.2L1059.03 91.3902L1055.03 91.554ZM1009.21 91.554L1005.22 91.8932L1005.53 95.554H1009.21V91.554ZM1006.23 84.2479L1009.28 81.6521L1009.28 81.6521L1006.23 84.2479ZM999.467 79.5575L997.911 83.2425L997.96 83.2632L998.01 83.2825L999.467 79.5575ZM979.443 80.1889L977.626 76.6253L977.626 76.6253L979.443 80.1889ZM974.933 86.8636L978.931 86.9812L978.934 86.8808L978.932 86.7803L974.933 86.8636ZM977.549 92.5462L974.769 95.4221L974.792 95.4449L974.816 95.4672L977.549 92.5462ZM988.283 96.6051L987.567 100.541L987.576 100.542L988.283 96.6051ZM1016.42 101.656L1017.14 97.721L1017.13 97.7192L1016.42 101.656ZM1048.08 114.735L1045.43 117.728L1045.44 117.74L1045.46 117.752L1048.08 114.735ZM1058.64 139.179L1062.64 139.203L1062.64 139.179L1062.64 139.155L1058.64 139.179ZM1049.8 164.886L1046.68 162.384L1046.67 162.387L1049.8 164.886ZM1026.08 181.663L1027.53 185.387L1027.55 185.383L1026.08 181.663ZM942.191 174.537L939.838 177.772L939.846 177.778L942.191 174.537ZM922.257 140.261V136.261H917.848L918.276 140.649L922.257 140.261ZM971.686 140.261L975.641 139.665L975.128 136.261H971.686V140.261ZM978.18 150.454L975.987 153.799L976.018 153.82L976.05 153.84L978.18 150.454ZM1003.53 151.626L1001.68 148.078L1001.67 148.085L1001.65 148.093L1003.53 151.626ZM1008.13 144.952L1012.13 145.035L1012.13 144.948L1012.13 144.861L1008.13 144.952ZM1004.16 138.638L1002.05 142.039L1002.07 142.05L1002.09 142.061L1004.16 138.638ZM992.251 134.849L992.951 130.911L992.946 130.91L992.251 134.849ZM967.717 130.52L968.412 126.581L968.405 126.579L967.717 130.52ZM935.967 116.449L938.771 113.596L938.771 113.596L935.967 116.449ZM925.504 89.75L929.504 89.7721L929.504 89.7485L929.504 89.725L925.504 89.75ZM933.081 65.3061L929.908 62.87L929.905 62.8742L933.081 65.3061ZM955.18 49.9723L956.55 53.7301L956.563 53.7253L955.18 49.9723ZM1036.72 57.098L1034.38 60.3461L1034.39 60.3518L1036.72 57.098ZM1055.03 87.554H1009.21V95.554H1055.03V87.554ZM1013.19 91.2148C1012.89 87.6055 1011.59 84.3684 1009.28 81.6521L1003.19 86.8437C1004.36 88.2163 1005.05 89.85 1005.22 91.8932L1013.19 91.2148ZM1009.28 81.6521C1007.06 79.0551 1004.24 77.1292 1000.92 75.8326L998.01 83.2825C1000.23 84.1506 1001.92 85.3516 1003.19 86.8437L1009.28 81.6521ZM1001.02 75.8725C997.766 74.4975 994.222 73.8438 990.447 73.8438V81.8438C993.287 81.8438 995.756 82.3325 997.911 83.2425L1001.02 75.8725ZM990.447 73.8438C985.695 73.8438 981.375 74.7143 977.626 76.6253L981.26 83.7525C983.645 82.5367 986.661 81.8438 990.447 81.8438V73.8438ZM977.626 76.6253C975.656 77.6299 973.924 78.9808 972.701 80.7908C971.451 82.6405 970.888 84.7429 970.934 86.9469L978.932 86.7803C978.918 86.098 979.076 85.6448 979.33 85.2696C979.61 84.8547 980.164 84.3114 981.26 83.7525L977.626 76.6253ZM970.935 86.746C970.834 90.1638 972.354 93.0874 974.769 95.4221L980.329 89.6702C979.136 88.5172 978.912 87.6525 978.931 86.9812L970.935 86.746ZM974.816 95.4672C977.589 98.0615 982.191 99.5631 987.567 100.541L988.998 92.6696C983.791 91.7228 981.237 90.5185 980.281 89.6251L974.816 95.4672ZM987.576 100.542L1015.72 105.593L1017.13 97.7192L988.989 92.668L987.576 100.542ZM1015.71 105.591C1029.55 108.113 1039.29 112.28 1045.43 117.728L1050.74 111.743C1043.05 104.924 1031.68 100.371 1017.14 97.721L1015.71 105.591ZM1045.46 117.752C1051.47 122.986 1054.58 129.993 1054.64 139.203L1062.64 139.155C1062.57 127.92 1058.65 118.631 1050.71 111.718L1045.46 117.752ZM1054.64 139.155C1054.58 148.171 1051.91 155.853 1046.68 162.384L1052.92 167.388C1059.35 159.366 1062.57 149.911 1062.64 139.203L1054.64 139.155ZM1046.67 162.387C1041.41 168.973 1034.11 174.186 1024.61 177.943L1027.55 185.383C1038.13 181.201 1046.65 175.23 1052.92 167.384L1046.67 162.387ZM1024.62 177.938C1015.18 181.633 1004.29 183.526 991.89 183.526V191.526C1005.1 191.526 1017.01 189.51 1027.53 185.387L1024.62 177.938ZM991.89 183.526C971.215 183.526 955.582 179.289 944.536 171.296L939.846 177.778C952.733 187.103 970.233 191.526 991.89 191.526V183.526ZM944.544 171.302C933.528 163.291 927.506 152.885 926.238 139.873L918.276 140.649C919.774 156.02 927.041 168.465 939.838 177.772L944.544 171.302ZM922.257 144.261H971.686V136.261H922.257V144.261ZM967.731 140.857C968.559 146.357 971.354 150.761 975.987 153.799L980.374 147.109C977.67 145.336 976.136 142.945 975.641 139.665L967.731 140.857ZM976.05 153.84C980.574 156.685 986.056 157.972 992.251 157.972V149.972C987.142 149.972 983.243 148.913 980.31 147.068L976.05 153.84ZM992.251 157.972C997.245 157.972 1001.7 157.122 1005.4 155.16L1001.65 148.093C999.456 149.258 996.398 149.972 992.251 149.972V157.972ZM1005.37 155.175C1009.4 153.078 1012.03 149.665 1012.13 145.035L1004.13 144.868C1004.1 146.011 1003.66 147.048 1001.68 148.078L1005.37 155.175ZM1012.13 144.861C1012.03 140.634 1009.79 137.368 1006.23 135.215L1002.09 142.061C1003.7 143.035 1004.1 143.978 1004.13 145.043L1012.13 144.861ZM1006.26 135.237C1003.08 133.268 998.511 131.9 992.951 130.911L991.551 138.788C996.815 139.724 1000.18 140.88 1002.05 142.039L1006.26 135.237ZM992.946 130.91L968.412 126.581L967.022 134.459L991.556 138.789L992.946 130.91ZM968.405 126.579C954.727 124.193 945.02 119.738 938.771 113.596L933.163 119.302C940.986 126.99 952.445 131.916 967.03 134.46L968.405 126.579ZM938.771 113.596C932.59 107.52 929.449 99.6987 929.504 89.7721L921.504 89.7279C921.439 101.569 925.274 111.547 933.163 119.302L938.771 113.596ZM929.504 89.725C929.449 80.8572 931.761 73.6082 936.257 67.738L929.905 62.8742C924.178 70.3535 921.439 79.4004 921.504 89.775L929.504 89.725ZM936.253 67.7422C940.877 61.7206 947.56 57.0096 956.55 53.7301L953.809 46.2145C943.677 49.9104 935.627 55.4219 929.908 62.87L936.253 67.7422ZM956.563 53.7253C965.636 50.3799 976.54 48.6506 989.365 48.6506V40.6506C975.851 40.6506 963.966 42.4691 953.796 46.2193L956.563 53.7253ZM989.365 48.6506C1008.88 48.6506 1023.75 52.6999 1034.38 60.3461L1039.05 53.85C1026.6 44.8995 1009.9 40.6506 989.365 40.6506V48.6506ZM1034.39 60.3518C1044.96 67.9085 1050.48 78.2357 1051.03 91.7178L1059.03 91.3902C1058.38 75.5275 1051.69 62.8841 1039.05 53.8442L1034.39 60.3518ZM1150.18 46.4545H1154.18V42.4545H1150.18V46.4545ZM1150.18 82.5341V86.5341H1154.18V82.5341H1150.18ZM1058.9 82.5341H1054.9V86.5341H1058.9V82.5341ZM1058.9 46.4545V42.4545H1054.9V46.4545H1058.9ZM1076.57 13.2614V9.26136H1072.57V13.2614H1076.57ZM1126.36 13.2614H1130.36V9.26136H1126.36V13.2614ZM1127.36 145.312L1123.78 147.101L1123.8 147.135L1123.81 147.169L1127.36 145.312ZM1130.42 148.199L1128.7 151.807L1128.76 151.838L1128.83 151.867L1130.42 148.199ZM1140.98 148.56L1140.28 144.621L1140.27 144.622L1140.26 144.624L1140.98 148.56ZM1145.49 147.658L1149.4 146.85L1148.56 142.766L1144.52 143.777L1145.49 147.658ZM1152.7 182.655L1153.84 186.489L1157.36 185.443L1156.62 181.847L1152.7 182.655ZM1143.14 185.09L1142.24 181.194L1142.23 181.197L1143.14 185.09ZM1128.53 186.984L1128.74 190.979L1128.74 190.979L1128.53 186.984ZM1099.76 183.467L1098.31 187.196L1098.32 187.201L1098.34 187.206L1099.76 183.467ZM1082.26 169.305L1078.84 171.382L1078.84 171.382L1082.26 169.305ZM1076.57 145.132L1080.57 145.182L1080.57 145.157V145.132H1076.57ZM1146.18 46.4545V82.5341H1154.18V46.4545H1146.18ZM1150.18 78.5341H1058.9V86.5341H1150.18V78.5341ZM1062.9 82.5341V46.4545H1054.9V82.5341H1062.9ZM1058.9 50.4545H1150.18V42.4545H1058.9V50.4545ZM1076.57 17.2614H1126.36V9.26136H1076.57V17.2614ZM1122.36 13.2614V140.442H1130.36V13.2614H1122.36ZM1122.36 140.442C1122.36 142.807 1122.77 145.082 1123.78 147.101L1130.93 143.524C1130.62 142.898 1130.36 141.925 1130.36 140.442H1122.36ZM1123.81 147.169C1124.91 149.255 1126.6 150.803 1128.7 151.807L1132.15 144.59C1131.48 144.272 1131.13 143.895 1130.9 143.456L1123.81 147.169ZM1128.83 151.867C1130.88 152.761 1133.25 153.101 1135.75 153.101V145.101C1133.91 145.101 1132.73 144.84 1132.02 144.531L1128.83 151.867ZM1135.75 153.101C1137.55 153.101 1139.55 152.885 1141.69 152.495L1140.26 144.624C1138.44 144.956 1136.94 145.101 1135.75 145.101V153.101ZM1141.67 152.499C1143.73 152.135 1145.35 151.815 1146.46 151.538L1144.52 143.777C1143.7 143.982 1142.31 144.262 1140.28 144.621L1141.67 152.499ZM1141.57 148.465L1148.78 183.463L1156.62 181.847L1149.4 146.85L1141.57 148.465ZM1151.56 178.821C1149.46 179.447 1146.36 180.237 1142.24 181.194L1144.04 188.987C1148.22 188.019 1151.5 187.185 1153.84 186.489L1151.56 178.821ZM1142.23 181.197C1138.43 182.089 1133.81 182.698 1128.32 182.99L1128.74 190.979C1134.56 190.669 1139.67 190.015 1144.06 188.984L1142.23 181.197ZM1128.32 182.99C1117.25 183.572 1108.26 182.417 1101.18 179.727L1098.34 187.206C1106.77 190.41 1116.96 191.599 1128.74 190.979L1128.32 182.99ZM1101.2 179.737C1094.17 177.013 1089.08 172.83 1085.68 167.229L1078.84 171.382C1083.25 178.649 1089.82 183.906 1098.31 187.196L1101.2 179.737ZM1085.68 167.229C1082.25 161.594 1080.46 154.325 1080.57 145.182L1072.57 145.082C1072.45 155.302 1074.44 164.148 1078.84 171.382L1085.68 167.229ZM1080.57 145.132V13.2614H1072.57V145.132H1080.57ZM1186.99 179.047L1185.1 182.571L1185.11 182.578L1185.12 182.584L1186.99 179.047ZM1162.36 154.513L1158.83 156.396L1158.84 156.408L1158.85 156.42L1162.36 154.513ZM1162.45 78.5653L1165.97 80.4641L1165.97 80.4641L1162.45 78.5653ZM1186.9 53.5803L1188.87 57.0618L1188.87 57.0618L1186.9 53.5803ZM1252.56 49.5213L1253.99 45.7859L1253.99 45.7859L1252.56 49.5213ZM1274.3 63.6825L1271.43 66.4689L1271.44 66.4758L1271.44 66.4828L1274.3 63.6825ZM1288.19 86.0518L1284.44 87.4394L1284.44 87.4394L1288.19 86.0518ZM1293.06 127.273V131.273H1297.06V127.273H1293.06ZM1169.31 127.273H1165.31V131.273H1169.31V127.273ZM1169.31 99.8523V95.8523H1165.31V99.8523H1169.31ZM1247.24 99.8523V103.852H1251.3L1251.24 99.7917L1247.24 99.8523ZM1244.17 89.3892L1240.79 91.5152L1240.81 91.5542L1240.84 91.5926L1244.17 89.3892ZM1236.33 82.2635L1234.43 85.7875L1234.47 85.8082L1234.51 85.8281L1236.33 82.2635ZM1214.14 82.2635L1215.93 85.8412L1215.95 85.8285L1215.98 85.8155L1214.14 82.2635ZM1206.02 89.299L1202.71 87.0498L1202.7 87.0726L1202.68 87.0956L1206.02 89.299ZM1202.86 99.8523L1198.86 99.7329L1198.86 99.7926V99.8523H1202.86ZM1205.66 141.344L1202.13 143.229L1202.13 143.229L1205.66 141.344ZM1213.69 149.552L1211.71 153.029L1211.71 153.029L1213.69 149.552ZM1235.7 151.085L1234.43 147.29L1234.42 147.295L1234.41 147.299L1235.7 151.085ZM1243.09 146.936L1245.74 149.935L1245.76 149.914L1245.79 149.892L1243.09 146.936ZM1247.6 140.261V136.261H1244.82L1243.85 138.866L1247.6 140.261ZM1293.06 140.261L1297.01 140.903L1297.76 136.261H1293.06V140.261ZM1281.97 165.337L1285.05 167.89L1285.05 167.883L1285.06 167.877L1281.97 165.337ZM1258.79 181.753L1260.28 185.464L1260.29 185.459L1258.79 181.753ZM1225.23 183.526C1210.95 183.526 1198.87 180.798 1188.86 175.51L1185.12 182.584C1196.51 188.601 1209.93 191.526 1225.23 191.526V183.526ZM1188.88 175.522C1178.93 170.18 1171.28 162.565 1165.88 152.606L1158.85 156.42C1164.99 167.748 1173.76 176.489 1185.1 182.571L1188.88 175.522ZM1165.89 152.629C1160.55 142.624 1157.79 130.493 1157.79 116.088H1149.79C1149.79 131.509 1152.75 144.995 1158.83 156.396L1165.89 152.629ZM1157.79 116.088C1157.79 102.322 1160.57 90.489 1165.97 80.4641L1158.93 76.6666C1152.79 88.0488 1149.79 101.231 1149.79 116.088H1157.79ZM1165.97 80.4641C1171.39 70.4195 1179 62.6416 1188.87 57.0618L1184.93 50.0987C1173.75 56.4251 1165.06 65.304 1158.93 76.6666L1165.97 80.4641ZM1188.87 57.0618C1198.69 51.5061 1210.4 48.6506 1224.15 48.6506V40.6506C1209.28 40.6506 1196.15 43.7482 1184.93 50.0987L1188.87 57.0618ZM1224.15 48.6506C1234.2 48.6506 1243.17 50.209 1251.13 53.2567L1253.99 45.7859C1244.99 42.3393 1235.03 40.6506 1224.15 40.6506V48.6506ZM1251.13 53.2567C1259.1 56.3069 1265.84 60.714 1271.43 66.4689L1277.17 60.8962C1270.73 54.2638 1262.99 49.23 1253.99 45.7859L1251.13 53.2567ZM1271.44 66.4828C1277.03 72.1788 1281.37 79.1408 1284.44 87.4394L1291.94 84.6643C1288.52 75.4042 1283.6 67.4533 1277.16 60.8822L1271.44 66.4828ZM1284.44 87.4394C1287.5 95.7042 1289.06 105.115 1289.06 115.727H1297.06C1297.06 104.331 1295.38 93.9582 1291.94 84.6643L1284.44 87.4394ZM1289.06 115.727V127.273H1297.06V115.727H1289.06ZM1293.06 123.273H1169.31V131.273H1293.06V123.273ZM1173.31 127.273V99.8523H1165.31V127.273H1173.31ZM1169.31 103.852H1247.24V95.8523H1169.31V103.852ZM1251.24 99.7917C1251.17 95.1407 1249.96 90.8931 1247.51 87.1858L1240.84 91.5926C1242.36 93.8986 1243.19 96.6263 1243.24 99.9129L1251.24 99.7917ZM1247.56 87.2632C1245.24 83.5674 1242.08 80.7023 1238.14 78.6988L1234.51 85.8281C1237.19 87.1921 1239.26 89.0774 1240.79 91.5152L1247.56 87.2632ZM1238.22 78.7395C1234.32 76.6456 1229.96 75.6477 1225.23 75.6477V83.6477C1228.81 83.6477 1231.84 84.3937 1234.43 85.7875L1238.22 78.7395ZM1225.23 75.6477C1220.6 75.6477 1216.27 76.655 1212.3 78.7115L1215.98 85.8155C1218.74 84.3843 1221.8 83.6477 1225.23 83.6477V75.6477ZM1212.35 78.6858C1208.39 80.6639 1205.16 83.4573 1202.71 87.0498L1209.33 91.5482C1210.97 89.1275 1213.15 87.2305 1215.93 85.8412L1212.35 78.6858ZM1202.68 87.0956C1200.24 90.7939 1199 95.0524 1198.86 99.7329L1206.86 99.9716C1206.96 96.5944 1207.83 93.8174 1209.36 91.5024L1202.68 87.0956ZM1198.86 99.8523V129.438H1206.86V99.8523H1198.86ZM1198.86 129.438C1198.86 134.462 1199.92 139.092 1202.13 143.229L1209.19 139.458C1207.67 136.62 1206.86 133.313 1206.86 129.438H1198.86ZM1202.13 143.229C1204.36 147.393 1207.57 150.676 1211.71 153.029L1215.66 146.075C1212.82 144.458 1210.69 142.27 1209.19 139.458L1202.13 143.229ZM1211.71 153.029C1215.92 155.426 1220.85 156.528 1226.31 156.528V148.528C1221.92 148.528 1218.43 147.646 1215.66 146.075L1211.71 153.029ZM1226.31 156.528C1230.12 156.528 1233.69 155.994 1236.98 154.872L1234.41 147.299C1232.05 148.1 1229.37 148.528 1226.31 148.528V156.528ZM1236.96 154.88C1240.3 153.768 1243.25 152.134 1245.74 149.935L1240.45 143.937C1238.85 145.347 1236.87 146.478 1234.43 147.29L1236.96 154.88ZM1245.79 149.892C1248.3 147.6 1250.17 144.841 1251.35 141.656L1243.85 138.866C1243.11 140.854 1241.97 142.544 1240.4 143.98L1245.79 149.892ZM1247.6 144.261H1293.06V136.261H1247.6V144.261ZM1289.11 139.62C1287.66 148.588 1284.23 156.281 1278.88 162.797L1285.06 167.877C1291.37 160.202 1295.34 151.177 1297.01 140.903L1289.11 139.62ZM1278.89 162.784C1273.53 169.245 1266.37 174.353 1257.28 178.047L1260.29 185.459C1270.44 181.336 1278.74 175.499 1285.05 167.89L1278.89 162.784ZM1257.29 178.042C1248.31 181.659 1237.65 183.526 1225.23 183.526V191.526C1238.43 191.526 1250.14 189.543 1260.28 185.464L1257.29 178.042ZM1303.22 185H1299.22V189H1303.22V185ZM1303.22 46.4545V42.4545H1299.22V46.4545H1303.22ZM1351.57 46.4545H1355.57V42.4545H1351.57V46.4545ZM1351.57 72.7926H1347.57V76.7926H1351.57V72.7926ZM1353.01 72.7926V76.7926H1356.1L1356.88 73.7965L1353.01 72.7926ZM1365.01 51.4155L1362.48 48.3151L1362.47 48.3219L1362.46 48.3287L1365.01 51.4155ZM1390.8 45.1918L1390.13 49.1343L1390.19 49.145L1390.25 49.1537L1390.8 45.1918ZM1397.03 46.5447H1401.03V43.5772L1398.19 42.7166L1397.03 46.5447ZM1397.03 89.0284L1395.73 92.8138L1401.03 94.621V89.0284H1397.03ZM1387.92 87.1342L1388.38 83.1612L1388.38 83.1612L1387.92 87.1342ZM1365.46 89.8402L1367.42 93.3265L1367.43 93.3215L1367.44 93.3165L1365.46 89.8402ZM1356.35 99.0405L1359.82 101.019L1359.83 101.008L1359.84 100.997L1356.35 99.0405ZM1353.01 185V189H1357.01V185H1353.01ZM1307.22 185V46.4545H1299.22V185H1307.22ZM1303.22 50.4545H1351.57V42.4545H1303.22V50.4545ZM1347.57 46.4545V72.7926H1355.57V46.4545H1347.57ZM1351.57 76.7926H1353.01V68.7926H1351.57V76.7926ZM1356.88 73.7965C1359.28 64.5408 1362.95 58.2924 1367.55 54.5022L1362.46 48.3287C1356.12 53.5584 1351.79 61.5615 1349.14 71.7888L1356.88 73.7965ZM1367.53 54.5158C1372.32 50.6102 1377.89 48.6506 1384.4 48.6506V40.6506C1376.12 40.6506 1368.75 43.2008 1362.48 48.3151L1367.53 54.5158ZM1384.4 48.6506C1386.34 48.6506 1388.25 48.8123 1390.13 49.1343L1391.48 41.2493C1389.15 40.8497 1386.79 40.6506 1384.4 40.6506V48.6506ZM1390.25 49.1537C1392.22 49.4273 1394.09 49.8351 1395.87 50.3728L1398.19 42.7166C1395.99 42.0517 1393.71 41.5576 1391.35 41.2298L1390.25 49.1537ZM1393.03 46.5447V89.0284H1401.03V46.5447H1393.03ZM1398.32 85.243C1395.5 84.2813 1392.17 83.6032 1388.38 83.1612L1387.45 91.1073C1390.88 91.5071 1393.62 92.0918 1395.73 92.8138L1398.32 85.243ZM1388.38 83.1612C1384.67 82.7289 1381.41 82.5028 1378.63 82.5028V90.5028C1381.01 90.5028 1383.94 90.6977 1387.45 91.1073L1388.38 83.1612ZM1378.63 82.5028C1373.12 82.5028 1368.04 83.7676 1363.48 86.3639L1367.44 93.3165C1370.69 91.463 1374.39 90.5028 1378.63 90.5028V82.5028ZM1363.5 86.3539C1358.99 88.8901 1355.43 92.4955 1352.86 97.0845L1359.84 100.997C1361.71 97.648 1364.23 95.1198 1367.42 93.3265L1363.5 86.3539ZM1352.87 97.0617C1350.25 101.672 1349.01 106.979 1349.01 112.841H1357.01C1357.01 108.12 1358 104.226 1359.82 101.019L1352.87 97.0617ZM1349.01 112.841V185H1357.01V112.841H1349.01ZM1353.01 181H1303.22V189H1353.01V181Z" fill="white" mask="url(#path-1-outside-1_2005_93)"/>
</svg>
