<svg width="95" height="13" viewBox="0 0 95 13" fill="none" xmlns="http://www.w3.org/2000/svg">
<path d="M0.75 12V0.363636H3.90909V4.90909H8.09091V0.363636H11.25V12H8.09091V7.45455H3.90909V12H0.75ZM16.9773 12.1591C16.0455 12.1591 15.2424 11.9811 14.5682 11.625C13.8977 11.2652 13.3807 10.75 13.017 10.0795C12.6572 9.4053 12.4773 8.59848 12.4773 7.65909C12.4773 6.75758 12.6591 5.9697 13.0227 5.29545C13.3864 4.62121 13.8996 4.09659 14.5625 3.72159C15.2254 3.34659 16.0076 3.15909 16.9091 3.15909C17.5682 3.15909 18.1648 3.26136 18.6989 3.46591C19.233 3.67045 19.6894 3.9678 20.0682 4.35795C20.447 4.74432 20.7386 5.21402 20.9432 5.76705C21.1477 6.32008 21.25 6.94318 21.25 7.63636V8.36364H13.4545V6.63636H18.3636C18.3598 6.38636 18.2955 6.16667 18.1705 5.97727C18.0492 5.78409 17.8845 5.63447 17.6761 5.52841C17.4716 5.41856 17.2386 5.36364 16.9773 5.36364C16.7235 5.36364 16.4905 5.41856 16.2784 5.52841C16.0663 5.63447 15.8958 5.7822 15.767 5.97159C15.642 6.16098 15.5758 6.38258 15.5682 6.63636V8.5C15.5682 8.7803 15.6269 9.0303 15.7443 9.25C15.8617 9.4697 16.0303 9.64205 16.25 9.76705C16.4697 9.89205 16.7348 9.95455 17.0455 9.95455C17.2614 9.95455 17.4583 9.92424 17.6364 9.86364C17.8182 9.80303 17.9735 9.71591 18.1023 9.60227C18.2311 9.48485 18.3258 9.3447 18.3864 9.18182H21.25C21.1515 9.78788 20.9186 10.3144 20.5511 10.7614C20.1837 11.2045 19.697 11.5492 19.0909 11.7955C18.4886 12.0379 17.7841 12.1591 16.9773 12.1591ZM24.9616 12.1364C24.4048 12.1364 23.9124 12.0455 23.4844 11.8636C23.0601 11.678 22.7268 11.3977 22.4844 11.0227C22.242 10.6477 22.1207 10.1705 22.1207 9.59091C22.1207 9.11364 22.2022 8.70644 22.3651 8.36932C22.5279 8.02841 22.7552 7.75 23.0469 7.53409C23.3385 7.31818 23.6776 7.15341 24.0639 7.03977C24.4541 6.92614 24.8745 6.85227 25.3253 6.81818C25.8139 6.7803 26.206 6.73485 26.5014 6.68182C26.8007 6.625 27.0166 6.54735 27.1491 6.44886C27.2817 6.34659 27.348 6.21212 27.348 6.04545V6.02273C27.348 5.79545 27.2609 5.62121 27.0866 5.5C26.9124 5.37879 26.6889 5.31818 26.4162 5.31818C26.117 5.31818 25.8726 5.38447 25.6832 5.51705C25.4976 5.64583 25.3859 5.8447 25.348 6.11364H22.4616C22.4995 5.58333 22.6681 5.0947 22.9673 4.64773C23.2704 4.19697 23.7116 3.83712 24.2912 3.56818C24.8707 3.29545 25.5942 3.15909 26.4616 3.15909C27.0866 3.15909 27.6473 3.23295 28.1435 3.38068C28.6397 3.52462 29.062 3.72727 29.4105 3.98864C29.759 4.24621 30.0241 4.54924 30.206 4.89773C30.3916 5.24242 30.4844 5.61742 30.4844 6.02273V12H27.5526V10.7727H27.4844C27.3101 11.0985 27.098 11.3617 26.848 11.5625C26.6018 11.7633 26.3196 11.9091 26.0014 12C25.687 12.0909 25.3404 12.1364 24.9616 12.1364ZM25.9844 10.1591C26.223 10.1591 26.4465 10.1098 26.6548 10.0114C26.867 9.91288 27.0393 9.77083 27.1719 9.58523C27.3045 9.39962 27.3707 9.17424 27.3707 8.90909V8.18182C27.2874 8.21591 27.1984 8.24811 27.1037 8.27841C27.0128 8.30871 26.9143 8.33712 26.8082 8.36364C26.706 8.39015 26.5961 8.41477 26.4787 8.4375C26.3651 8.46023 26.2457 8.48106 26.1207 8.5C25.8783 8.53788 25.6795 8.60038 25.5241 8.6875C25.3726 8.77083 25.259 8.875 25.1832 9C25.1113 9.12121 25.0753 9.25758 25.0753 9.40909C25.0753 9.65152 25.1605 9.83712 25.331 9.96591C25.5014 10.0947 25.7192 10.1591 25.9844 10.1591ZM37.1875 3.27273V5.54545H31.4375V3.27273H37.1875ZM32.5511 1.18182H35.6875V9.19318C35.6875 9.31439 35.7083 9.41667 35.75 9.5C35.7917 9.57955 35.8561 9.64015 35.9432 9.68182C36.0303 9.7197 36.142 9.73864 36.2784 9.73864C36.3731 9.73864 36.483 9.72727 36.608 9.70455C36.7367 9.68182 36.8314 9.66288 36.892 9.64773L37.3466 11.8523C37.2064 11.8939 37.0057 11.9451 36.7443 12.0057C36.4867 12.0663 36.1799 12.1061 35.8239 12.125C35.1042 12.1629 34.5 12.089 34.0114 11.9034C33.5227 11.714 33.1553 11.4167 32.9091 11.0114C32.6629 10.6061 32.5436 10.0985 32.5511 9.48864V1.18182ZM38.6094 0.363636H42.5412L45.2457 6.95455H45.3821L48.0866 0.363636H52.0185V12H48.9276V5.27273H48.8366L46.2457 11.9091H44.3821L41.7912 5.22727H41.7003V12H38.6094V0.363636ZM55.9929 12.1364C55.4361 12.1364 54.9437 12.0455 54.5156 11.8636C54.0914 11.678 53.758 11.3977 53.5156 11.0227C53.2732 10.6477 53.152 10.1705 53.152 9.59091C53.152 9.11364 53.2334 8.70644 53.3963 8.36932C53.5592 8.02841 53.7865 7.75 54.0781 7.53409C54.3698 7.31818 54.7088 7.15341 55.0952 7.03977C55.4853 6.92614 55.9058 6.85227 56.3565 6.81818C56.8452 6.7803 57.2372 6.73485 57.5327 6.68182C57.8319 6.625 58.0478 6.54735 58.1804 6.44886C58.313 6.34659 58.3793 6.21212 58.3793 6.04545V6.02273C58.3793 5.79545 58.2921 5.62121 58.1179 5.5C57.9437 5.37879 57.7202 5.31818 57.4474 5.31818C57.1482 5.31818 56.9039 5.38447 56.7145 5.51705C56.5289 5.64583 56.4171 5.8447 56.3793 6.11364H53.4929C53.5308 5.58333 53.6993 5.0947 53.9986 4.64773C54.3016 4.19697 54.7429 3.83712 55.3224 3.56818C55.902 3.29545 56.6255 3.15909 57.4929 3.15909C58.1179 3.15909 58.6785 3.23295 59.1747 3.38068C59.6709 3.52462 60.0933 3.72727 60.4418 3.98864C60.7902 4.24621 61.0554 4.54924 61.2372 4.89773C61.4228 5.24242 61.5156 5.61742 61.5156 6.02273V12H58.5838V10.7727H58.5156C58.3414 11.0985 58.1293 11.3617 57.8793 11.5625C57.633 11.7633 57.3509 11.9091 57.0327 12C56.7183 12.0909 56.3717 12.1364 55.9929 12.1364ZM57.0156 10.1591C57.2543 10.1591 57.4777 10.1098 57.6861 10.0114C57.8982 9.91288 58.0705 9.77083 58.2031 9.58523C58.3357 9.39962 58.402 9.17424 58.402 8.90909V8.18182C58.3187 8.21591 58.2296 8.24811 58.1349 8.27841C58.044 8.30871 57.9455 8.33712 57.8395 8.36364C57.7372 8.39015 57.6274 8.41477 57.5099 8.4375C57.3963 8.46023 57.277 8.48106 57.152 8.5C56.9096 8.53788 56.7107 8.60038 56.5554 8.6875C56.4039 8.77083 56.2902 8.875 56.2145 9C56.1425 9.12121 56.1065 9.25758 56.1065 9.40909C56.1065 9.65152 56.1918 9.83712 56.3622 9.96591C56.5327 10.0947 56.7505 10.1591 57.0156 10.1591ZM70.9915 6.11364H68.1051C68.09 5.93561 68.0275 5.7822 67.9176 5.65341C67.8078 5.52462 67.6657 5.42614 67.4915 5.35795C67.321 5.28598 67.1316 5.25 66.9233 5.25C66.6544 5.25 66.4233 5.29924 66.2301 5.39773C66.0369 5.49621 65.9422 5.63636 65.946 5.81818C65.9422 5.94697 65.9972 6.06629 66.1108 6.17614C66.2282 6.28598 66.4536 6.37121 66.7869 6.43182L68.5597 6.75C69.4536 6.91288 70.1184 7.1875 70.554 7.57386C70.9934 7.95644 71.215 8.4697 71.2188 9.11364C71.215 9.73485 71.0294 10.2746 70.6619 10.733C70.2983 11.1875 69.8002 11.5398 69.1676 11.7898C68.5388 12.036 67.821 12.1591 67.0142 12.1591C65.6809 12.1591 64.6373 11.8864 63.8835 11.3409C63.1335 10.7955 62.715 10.0758 62.6278 9.18182H65.7415C65.7831 9.45833 65.9195 9.67235 66.1506 9.82386C66.3854 9.97159 66.6809 10.0455 67.0369 10.0455C67.3248 10.0455 67.5616 9.99621 67.7472 9.89773C67.9366 9.79924 68.0331 9.65909 68.0369 9.47727C68.0331 9.31061 67.9498 9.17803 67.7869 9.07955C67.6278 8.98106 67.3778 8.90152 67.0369 8.84091L65.4915 8.56818C64.6013 8.41288 63.9347 8.11742 63.4915 7.68182C63.0483 7.24621 62.8286 6.68561 62.8324 6C62.8286 5.39394 62.9877 4.88068 63.3097 4.46023C63.6354 4.03598 64.0994 3.71401 64.7017 3.49432C65.3078 3.27083 66.0256 3.15909 66.8551 3.15909C68.1165 3.15909 69.1108 3.42045 69.8381 3.94318C70.5691 4.46591 70.9536 5.18939 70.9915 6.11364ZM77.625 3.27273V5.54545H71.875V3.27273H77.625ZM72.9886 1.18182H76.125V9.19318C76.125 9.31439 76.1458 9.41667 76.1875 9.5C76.2292 9.57955 76.2936 9.64015 76.3807 9.68182C76.4678 9.7197 76.5795 9.73864 76.7159 9.73864C76.8106 9.73864 76.9205 9.72727 77.0455 9.70455C77.1742 9.68182 77.2689 9.66288 77.3295 9.64773L77.7841 11.8523C77.6439 11.8939 77.4432 11.9451 77.1818 12.0057C76.9242 12.0663 76.6174 12.1061 76.2614 12.125C75.5417 12.1629 74.9375 12.089 74.4489 11.9034C73.9602 11.714 73.5928 11.4167 73.3466 11.0114C73.1004 10.6061 72.9811 10.0985 72.9886 9.48864V1.18182ZM82.9929 12.1591C82.0611 12.1591 81.258 11.9811 80.5838 11.625C79.9134 11.2652 79.3963 10.75 79.0327 10.0795C78.6728 9.4053 78.4929 8.59848 78.4929 7.65909C78.4929 6.75758 78.6747 5.9697 79.0384 5.29545C79.402 4.62121 79.9152 4.09659 80.5781 3.72159C81.241 3.34659 82.0232 3.15909 82.9247 3.15909C83.5838 3.15909 84.1804 3.26136 84.7145 3.46591C85.2486 3.67045 85.705 3.9678 86.0838 4.35795C86.4626 4.74432 86.7543 5.21402 86.9588 5.76705C87.1634 6.32008 87.2656 6.94318 87.2656 7.63636V8.36364H79.4702V6.63636H84.3793C84.3755 6.38636 84.3111 6.16667 84.1861 5.97727C84.0649 5.78409 83.9001 5.63447 83.6918 5.52841C83.4872 5.41856 83.2543 5.36364 82.9929 5.36364C82.7391 5.36364 82.5062 5.41856 82.294 5.52841C82.0819 5.63447 81.9115 5.7822 81.7827 5.97159C81.6577 6.16098 81.5914 6.38258 81.5838 6.63636V8.5C81.5838 8.7803 81.6425 9.0303 81.7599 9.25C81.8774 9.4697 82.0459 9.64205 82.2656 9.76705C82.4853 9.89205 82.7505 9.95455 83.0611 9.95455C83.277 9.95455 83.474 9.92424 83.652 9.86364C83.8338 9.80303 83.9891 9.71591 84.1179 9.60227C84.2467 9.48485 84.3414 9.3447 84.402 9.18182H87.2656C87.1671 9.78788 86.9342 10.3144 86.5668 10.7614C86.1993 11.2045 85.7126 11.5492 85.1065 11.7955C84.5043 12.0379 83.7997 12.1591 82.9929 12.1591ZM88.5455 12V3.27273H91.5909V4.93182H91.6818C91.8409 4.31818 92.0928 3.86932 92.4375 3.58523C92.786 3.30114 93.1932 3.15909 93.6591 3.15909C93.7955 3.15909 93.9299 3.17045 94.0625 3.19318C94.1989 3.21212 94.3295 3.24053 94.4545 3.27841V5.95455C94.2992 5.90152 94.108 5.86174 93.8807 5.83523C93.6534 5.80871 93.4583 5.79545 93.2955 5.79545C92.9886 5.79545 92.7121 5.86553 92.4659 6.00568C92.2235 6.14205 92.0322 6.33523 91.892 6.58523C91.7519 6.83144 91.6818 7.12121 91.6818 7.45455V12H88.5455Z" fill="#E0E0E0"/>
</svg>
