<svg width="200" height="120" viewBox="0 0 200 120" fill="none" xmlns="http://www.w3.org/2000/svg">
<rect width="200" height="120" rx="16" fill="white"/>
<g clip-path="url(#clip0_22_425)">
<path d="M100 36.0155C66.8221 36.0155 40 46.7684 40 59.9995C40 73.2306 66.8221 83.9834 100 83.9834C133.178 83.9834 160 73.2306 160 59.9995C160 46.7684 133.178 36.0155 100 36.0155Z" fill="#273270"/>
<path d="M134.737 66.7948H132.058C132.058 66.7948 134.297 60.439 134.977 58.2007C135.096 57.8008 135.177 57.361 135.177 57.1611C135.177 57.0013 135.096 56.8413 134.897 56.8413C134.617 56.8413 133.937 57.1611 132.698 58.9199H131.979C133.458 56.4816 135.297 54.8426 136.575 54.8426C137.415 54.8426 137.775 55.3224 137.775 56.0819C137.775 56.6014 137.535 57.6007 136.975 59.5994C139.374 55.2425 140.893 54.6429 141.852 54.6829C142.852 54.6829 143.411 55.3625 143.411 56.2018C143.411 57.0812 142.732 58.1206 141.692 58.1206C141.013 58.1206 140.533 57.6007 140.533 56.7215C140.533 56.6416 140.533 56.5215 140.533 56.4417C139.853 56.8014 138.095 58.3604 135.976 63.5168L134.737 66.7948ZM103.358 66.7948H100.68C100.68 66.7948 102.918 60.439 103.597 58.2007C103.717 57.8008 103.797 57.361 103.797 57.1611C103.797 57.0013 103.717 56.8413 103.517 56.8413C103.238 56.8413 102.558 57.1611 101.319 58.9199H100.6C102.078 56.4816 103.917 54.8426 105.197 54.8426C106.036 54.8426 106.396 55.3224 106.396 56.0819C106.396 56.6014 106.156 57.6007 105.596 59.5994C107.995 55.2425 109.514 54.6429 110.473 54.6829C111.472 54.6829 112.032 55.3625 112.032 56.2018C112.032 57.0812 111.352 58.1206 110.313 58.1206C109.633 58.1206 109.154 57.6007 109.154 56.7215C109.154 56.6416 109.154 56.5215 109.154 56.4417C108.475 56.8014 106.715 58.3604 104.597 63.5168L103.358 66.7948ZM118.548 51.4049C118.548 52.5641 117.588 53.6836 116.469 53.6836C115.829 53.6836 115.35 53.2839 115.35 52.4443C115.35 51.2851 116.309 50.166 117.428 50.166C118.068 50.166 118.548 50.5654 118.548 51.4049ZM114.67 54.8826H117.349L114.15 63.8768C114.11 63.9964 113.95 64.4762 113.95 64.8761C113.95 65.1558 114.071 65.2757 114.27 65.2757C114.99 65.2757 116.229 64.1165 116.988 63.0773H117.708C116.509 65.076 114.39 67.1544 112.472 67.1544C111.552 67.1544 110.952 66.5949 110.952 65.7156C110.952 65.1957 111.112 64.3561 111.592 63.0773L114.67 54.8826ZM73.6974 50.9254C73.2977 50.8054 72.7383 50.7254 72.1785 50.7254C66.8221 50.7254 62.1852 55.882 62.1852 61.1185C62.1852 64.9561 64.5436 65.9552 66.4624 65.9552C68.7006 65.9552 70.2998 65.076 71.7788 63.7568H72.5783C71.459 65.3156 69.0607 67.2744 65.5828 67.2744C60.8261 67.2744 58.9874 64.3965 58.9874 61.0786C58.9874 54.9225 65.5429 49.7261 72.4184 49.7261C75.0966 49.7261 76.6155 50.6856 76.6155 52.0446C76.6155 52.9241 75.9759 53.6836 74.8966 53.6836C74.0174 53.6836 73.3377 53.1637 73.3377 52.2044C73.3377 51.8848 73.4977 51.325 73.6974 50.9254ZM91.6454 66.7948H88.9671C88.9671 66.7948 91.2058 60.439 91.8854 58.2007C92.0054 57.8008 92.0854 57.361 92.0854 57.1611C92.0854 57.0013 92.0054 56.8413 91.8054 56.8413C91.5258 56.8413 90.8462 57.1611 89.6071 58.9199H88.8875C90.3662 56.4816 92.205 54.8426 93.4841 54.8426C94.3237 54.8426 94.6837 55.3224 94.6837 56.0819C94.6837 56.6014 94.4437 57.6007 93.8841 59.5994C96.2825 55.2425 97.8016 54.6429 98.7608 54.6829C99.76 54.6829 100.32 55.3625 100.32 56.2018C100.32 57.0812 99.6404 58.1206 98.6008 58.1206C97.9212 58.1206 97.4416 57.6007 97.4416 56.7215C97.4416 56.6416 97.4416 56.5215 97.4416 56.4417C96.7621 56.8014 95.0033 58.3604 92.8846 63.5168L91.6454 66.7948ZM126.782 55.4424C127.701 55.4424 128.062 56.1219 128.062 56.9214C128.062 58.1605 126.502 61.0387 122.345 61.1185C122.745 58.6802 124.663 55.4424 126.782 55.4424ZM124.224 65.7555C122.705 65.7555 122.025 64.6361 122.025 63.3971C122.025 62.9572 122.065 62.3176 122.145 61.9579C127.981 61.7581 130.58 59.6795 130.58 57.4409C130.58 55.8021 129.22 54.6828 127.102 54.6828C122.305 54.6828 119.027 59.2397 119.027 63.0374C119.027 65.7555 120.666 67.1544 123.385 67.1544C125.982 67.1544 128.541 65.076 129.66 63.3569H128.981C127.981 64.3561 126.302 65.7555 124.224 65.7555ZM83.4508 58.1605C83.4508 58.1605 82.5716 60.279 81.6925 61.9579C80.9726 63.3171 79.3739 65.3555 78.2145 65.3555C77.3751 65.3555 76.9354 64.7562 76.9354 63.7568C76.9354 60.3591 80.5729 55.6422 82.6116 55.6422C83.2912 55.6422 83.6908 56.2417 83.6908 57.0013C83.6908 57.361 83.6108 57.7209 83.4508 58.1605ZM86.6491 63.0773C86.1691 63.8366 85.09 65.1558 84.3304 65.1558C84.1308 65.1558 84.0104 65.0361 84.0104 64.7961C84.0104 64.4762 84.1308 64.0766 84.1308 64.0766L87.3683 54.8826H84.6504L84.2904 55.882C83.8108 55.1226 83.1712 54.8426 82.3716 54.8426C79.2139 54.8426 74.0571 59.3597 74.0571 63.9964C74.0571 65.9951 75.2565 67.1544 76.8953 67.1544C78.5343 67.1544 80.0133 65.7954 81.0926 64.1564H81.1725C81.1326 64.4364 81.0527 64.8761 81.0527 65.2757C81.0527 66.2752 81.5722 67.0344 82.5716 67.0344C84.81 67.0344 86.7687 64.0766 87.4083 63.0773H86.6491ZM100 79.8659C68.3411 79.8659 42.6782 70.9121 42.6782 59.9994C42.6782 49.0866 68.3411 40.1326 100 40.1326C131.659 40.1326 157.322 49.0866 157.322 59.9994C157.322 70.9121 131.659 79.8659 100 79.8659ZM100 38.7334C67.9014 38.7334 41.8787 48.2871 41.8787 59.9994C41.8787 71.7113 67.9014 81.2651 100 81.2651C132.099 81.2651 158.121 71.7113 158.121 59.9994C158.121 48.2871 132.099 38.7334 100 38.7334Z" fill="white"/>
</g>
<defs>
<clipPath id="clip0_22_425">
<rect width="120" height="47.9667" fill="white" transform="translate(40 36.0166)"/>
</clipPath>
</defs>
</svg>
