<svg width="200" height="120" viewBox="0 0 200 120" fill="none" xmlns="http://www.w3.org/2000/svg">
<rect width="200" height="120" rx="16" fill="white"/>
<g clip-path="url(#clip0_22_409)">
<path fill-rule="evenodd" clip-rule="evenodd" d="M51.8271 64.0296C52.6868 63.6284 53.2277 62.8224 53.2277 61.952C53.2277 60.6087 52.257 59.8994 50.3871 59.8994H45.605C45.8808 59.9675 46.0349 60.1502 46.0349 60.4117C46.0349 60.494 46.0205 60.5908 45.9919 60.7161L44.3441 68.1311C44.1901 68.8511 43.9967 69.0875 43.5525 69.1412H48.3346C50.1077 69.1412 51.2038 68.8511 51.9668 68.1705C52.5364 67.6725 52.8803 66.9239 52.8803 66.2433C52.8803 65.8134 52.7549 65.4122 52.5185 65.1221C52.1567 64.6636 51.6588 64.4558 50.5913 64.3305C51.2182 64.2803 51.451 64.2266 51.8271 64.0296ZM48.5423 61.8409H49.5274C50.0397 61.8409 50.2617 62.0343 50.2617 62.4928C50.2617 63.1448 49.8176 63.5317 49.0976 63.5317H48.1698L48.5423 61.8409ZM47.7937 65.1937H49.0259C49.7173 65.1937 50.0791 65.4696 50.0791 65.9854C50.0791 66.7197 49.4988 67.2033 48.6391 67.2033H47.3495L47.7937 65.1937Z" fill="#003767"/>
<path fill-rule="evenodd" clip-rule="evenodd" d="M58.0098 69.1447H61.0259C60.7322 69.0337 60.485 68.7507 60.3489 68.3674L59.4498 65.8564C60.768 65.5984 61.5811 64.599 61.5811 63.2593C61.5811 62.3352 61.2623 61.7585 60.5352 61.3644C59.9441 61.0456 59.3531 60.9346 58.2319 60.9346H54.2558C54.5029 60.9955 54.6391 61.1423 54.6391 61.3787C54.6391 61.4396 54.6283 61.5399 54.6032 61.651L53.1382 68.2528C52.9913 68.894 52.8301 69.091 52.4361 69.1519H55.9214C55.6492 69.0659 55.5525 68.9441 55.5525 68.697C55.5525 68.6361 55.5632 68.5358 55.5883 68.4247L56.0683 66.2325H57.0641L58.0098 69.1447ZM56.8528 62.654H57.974C58.6653 62.654 59.0199 62.9262 59.0199 63.417C59.0199 64.119 58.4898 64.5023 57.5191 64.5023H56.448L56.8528 62.654Z" fill="#003767"/>
<path fill-rule="evenodd" clip-rule="evenodd" d="M66.1555 68.2564L66.1805 68.4534C66.1913 68.4892 66.1913 68.5394 66.1913 68.5752C66.1913 68.894 66.0552 69.0802 65.7722 69.1411H69.1465C68.8134 69.0552 68.7274 68.9191 68.6414 68.3638L67.4952 60.9238H64.4396C64.6617 61.0098 64.7477 61.1101 64.7477 61.2677C64.7477 61.3537 64.7119 61.4396 64.6259 61.5758L60.6999 68.1346C60.2701 68.8725 60.048 69.0838 59.679 69.1447H62.7561C62.559 69.0695 62.4731 68.9728 62.4731 68.8116C62.4731 68.7256 62.5232 68.5537 62.5841 68.4534L63.2862 67.2211H66.0086L66.1555 68.2564ZM64.1101 65.7811L65.2564 63.6999C65.3316 63.5638 65.4283 63.3561 65.5286 63.0838V63.2701C65.5286 63.5782 65.5393 63.8002 65.5644 63.9364L65.8116 65.7847H64.1101V65.7811Z" fill="#003767"/>
<path fill-rule="evenodd" clip-rule="evenodd" d="M70.4898 61.3862C70.4898 61.4471 70.479 61.5474 70.454 61.6585L68.9853 68.2459C68.8492 68.8871 68.688 69.0949 68.294 69.145H71.482C71.8868 69.145 72.3202 69.12 72.7501 69.0842C74.251 68.923 75.2361 68.5433 76.0886 67.7659C77.0737 66.8776 77.6898 65.5236 77.6898 64.2304C77.6898 63.4674 77.482 62.7904 77.088 62.271C76.3752 61.2967 75.2647 60.9277 73.0976 60.9277H70.1173C70.3537 60.9922 70.4898 61.1534 70.4898 61.3862ZM72.7035 62.7045H73.0116C74.4408 62.7045 75.1035 63.2203 75.1035 64.3307C75.1035 65.1689 74.7704 66.0071 74.2295 66.5731C73.7244 67.1033 73.0474 67.3361 72.0874 67.3361H71.6826L72.7035 62.7045Z" fill="#003767"/>
<path d="M83.7256 62.6543C84.0946 62.6543 84.2056 62.7653 84.2558 63.1701L84.7609 60.9277H78.6032C78.8504 60.9886 78.9865 61.1355 78.9865 61.3719C78.9865 61.4328 78.9758 61.5331 78.9507 61.6298L77.4856 68.2424C77.3388 68.8836 77.1776 69.0913 76.7835 69.1415H80.2689C80.011 69.0662 79.9 68.9194 79.9 68.6865C79.9 68.6113 79.9107 68.5146 79.9358 68.4143L80.491 65.8889H82.8194C83.1274 65.8889 83.2886 66.0107 83.3603 66.2937L83.9262 63.7182C83.7543 64.0513 83.5823 64.1624 83.2492 64.1624H80.8707L81.2038 62.6471H83.7256V62.6543Z" fill="#003767"/>
<path fill-rule="evenodd" clip-rule="evenodd" d="M85.728 62.1022C84.7787 63.0766 84.1626 64.5524 84.1626 65.9064C84.1626 66.9058 84.5674 67.9016 85.2086 68.4784C85.8498 69.0587 86.8958 69.3882 88.1137 69.3882C89.4928 69.3882 90.6999 68.9834 91.574 68.2061C92.6199 67.2963 93.2862 65.7309 93.2862 64.23C93.2862 62.1237 91.7352 60.7446 89.3567 60.7446C87.8844 60.7446 86.5913 61.2246 85.728 62.1022ZM90.7035 64.1584C90.7035 65.0933 90.3955 65.9924 89.8546 66.7303C89.3746 67.3715 88.8802 67.6294 88.1782 67.6294C87.2898 67.6294 86.7382 67.0025 86.7382 66.0175C86.7382 65.1542 87.057 64.0581 87.5011 63.4204C87.8701 62.8796 88.5471 62.5106 89.1776 62.5106H89.2277C90.1984 62.5321 90.7035 63.0981 90.7035 64.1584Z" fill="#003767"/>
<path fill-rule="evenodd" clip-rule="evenodd" d="M98.165 69.1447H101.181C100.884 69.0337 100.64 68.7507 100.504 68.3674L99.605 65.8564C100.923 65.5984 101.736 64.599 101.736 63.2593C101.736 62.3352 101.418 61.7585 100.69 61.3644C100.099 61.0456 99.5083 60.9346 98.3871 60.9346H94.411C94.6582 60.9955 94.7943 61.1423 94.7943 61.3787C94.7943 61.4396 94.7835 61.5399 94.7585 61.651L93.2934 68.2528C93.1465 68.894 92.9853 69.091 92.5913 69.1519H96.0767C95.8044 69.0659 95.7077 68.9441 95.7077 68.697C95.7077 68.6361 95.7185 68.5358 95.7435 68.4247L96.2235 66.2325H97.2194L98.165 69.1447ZM97.008 62.654H98.1292C98.8206 62.654 99.1752 62.9262 99.1752 63.417C99.1752 64.119 98.645 64.5023 97.6743 64.5023H96.6032L97.008 62.654Z" fill="#003767"/>
<path fill-rule="evenodd" clip-rule="evenodd" d="M103.094 61.3862C103.094 61.4471 103.083 61.5474 103.058 61.6585L101.593 68.2459C101.457 68.8871 101.299 69.0949 100.902 69.145H104.09C104.495 69.145 104.928 69.12 105.358 69.0842C106.859 68.923 107.844 68.5433 108.696 67.7659C109.681 66.8776 110.298 65.5236 110.298 64.2304C110.298 63.4674 110.09 62.7904 109.696 62.271C108.983 61.2967 107.872 60.9277 105.705 60.9277H102.725C102.958 60.9922 103.094 61.1534 103.094 61.3862ZM105.311 62.7045H105.619C107.049 62.7045 107.711 63.2203 107.711 64.3307C107.711 65.1689 107.378 66.0071 106.837 66.5731C106.332 67.1033 105.655 67.3361 104.695 67.3361H104.29L105.311 62.7045Z" fill="#003767"/>
<path d="M120.657 69.2413H123.594L127.019 61.067C127.309 60.3757 127.545 60.1106 128.018 59.9028H124.705C124.981 59.9709 125.092 60.1106 125.092 60.3864C125.092 60.6085 125.009 60.9416 124.855 61.2998L122.914 65.9709L122.441 59.9028H120.625L117.397 65.9709L117.619 60.8306C117.634 60.2754 117.813 59.9995 118.243 59.9028H114.306C114.721 60.0282 114.847 60.236 114.847 60.7769V60.8306L114.693 69.2413H117.644L120.431 63.99L120.657 69.2413Z" fill="#003767"/>
<path d="M130.64 68.2458C130.504 68.8726 130.332 69.0947 129.938 69.1449H133.424C133.166 69.0589 133.055 68.9228 133.055 68.69C133.055 68.6291 133.065 68.5288 133.09 68.4177L134.545 61.8303C134.692 61.2034 134.853 60.992 135.247 60.9312H131.761C131.994 60.992 132.145 61.164 132.145 61.3861C132.145 61.447 132.134 61.5329 132.095 61.6583L131.579 64.0368H129.068L129.548 61.8338C129.695 61.207 129.856 60.9956 130.25 60.9347H126.764C127.012 60.9956 127.148 61.1568 127.148 61.3897C127.148 61.4506 127.137 61.5509 127.112 61.6619L125.647 68.2494C125.5 68.8906 125.339 69.0983 124.945 69.1485H128.43C128.183 69.0732 128.061 68.9156 128.061 68.6935C128.061 68.6326 128.072 68.5216 128.097 68.3962L128.688 65.7598H131.199L130.64 68.2458Z" fill="#003767"/>
<path d="M136.221 61.3861C136.221 61.447 136.21 61.5473 136.185 61.6583L134.72 68.2458C134.584 68.887 134.412 69.0947 134.018 69.1449H137.514C137.242 69.0589 137.131 68.9228 137.131 68.69C137.131 68.6147 137.142 68.518 137.167 68.4177L138.632 61.8303C138.768 61.2034 138.929 60.992 139.323 60.9312H135.838C136.085 60.992 136.221 61.1532 136.221 61.3861Z" fill="#003767"/>
<path d="M145.456 62.6543C146.097 62.6543 146.183 62.7295 146.269 63.2812L146.785 60.9277H139.581L139.087 63.1558C139.284 62.7618 139.492 62.6507 140.022 62.6507H141.523L140.28 68.2424C140.144 68.8836 139.982 69.0806 139.578 69.1415H143.074C142.816 69.0662 142.69 68.9194 142.69 68.6865C142.69 68.6113 142.701 68.5146 142.726 68.4143L144.009 62.6507H145.456V62.6543Z" fill="#003767"/>
<path d="M152.588 62.6543C152.907 62.6543 153.068 62.7761 153.129 63.0842L153.609 60.9277H147.29C147.537 60.9886 147.659 61.1498 147.659 61.3827C147.659 61.4579 147.648 61.5546 147.623 61.6656L146.169 68.2424C146.032 68.8692 145.861 69.0913 145.467 69.1415H151.943L152.423 67.0245C152.151 67.3433 152.018 67.4185 151.624 67.4185H148.841L149.199 65.8065H151.502C151.861 65.8065 152.043 65.9283 152.118 66.2006L152.674 63.6895C152.427 63.9976 152.244 64.0836 151.875 64.0836H149.586L149.894 62.6543H152.588Z" fill="#003767"/>
<path d="M94.5256 42.9849C94.9376 43.8159 95.8653 45.3562 97.8068 46.1478C101.081 47.484 103.424 46.1371 106.185 46.8392C107.937 47.287 108.754 48.1395 108.639 48.3867L107.858 51.6929C107.586 51.1198 107.106 50.5861 105.655 50.2099C102.603 49.4183 99.9991 50.9944 96.9006 49.9019C95.2098 49.3073 93.8701 47.767 93.5119 46.8858L94.5256 42.9849Z" fill="#003767"/>
<path d="M93.3794 47.4839C93.845 48.2684 94.6367 49.6296 96.8217 50.4534C99.4116 51.4313 102.861 50.1096 105.623 50.8116C107.375 51.2594 107.718 52.3913 107.718 52.3913L106.902 55.9233C106.755 55.3573 106.096 54.7161 104.677 54.3615C101.324 53.5269 98.9531 55.2785 95.8188 54.1C94.1638 53.4767 93.125 52.2875 92.4731 51.1878L93.3794 47.4839Z" fill="#3E6591"/>
<path d="M92.2976 51.6357C92.7668 52.3701 93.4796 53.7384 95.7364 54.7056C98.165 55.7444 101.683 54.2041 104.444 54.9098C106.196 55.3575 106.615 56.0381 106.744 56.5002L105.895 60.1074C105.669 59.588 105.147 58.9038 103.75 58.474C101.385 57.7504 97.7746 59.3265 94.4432 58.0871C92.7847 57.471 91.5023 56.1599 91.2802 55.5904L92.2976 51.6357Z" fill="#8EA2C1"/>
<path fill-rule="evenodd" clip-rule="evenodd" d="M154.572 61.4971C154.572 62.0667 155.034 62.5216 155.604 62.5216C156.173 62.5216 156.639 62.0667 156.639 61.4971C156.639 60.9312 156.177 60.4727 155.604 60.4727C155.034 60.4727 154.572 60.9347 154.572 61.4971ZM156.481 61.4971C156.481 61.9879 156.087 62.3855 155.604 62.3855C155.117 62.3855 154.726 61.9915 154.726 61.4971C154.726 61.01 155.117 60.6159 155.597 60.6159C156.084 60.6159 156.481 61.01 156.481 61.4971ZM155.557 61.5903L155.855 62.0631H156.13C156.08 62.0488 156.052 62.0237 156.012 61.9556L155.758 61.5652C155.769 61.5652 155.772 61.5616 155.779 61.5616C155.958 61.515 156.03 61.4291 156.03 61.2643C156.03 61.0386 155.88 60.9347 155.564 60.9347H155.113C155.174 60.9562 155.192 60.9741 155.192 61.0458V61.9485C155.192 62.0201 155.17 62.0524 155.113 62.0595H155.461C155.4 62.038 155.385 62.0201 155.385 61.9485V61.5903H155.557ZM155.382 61.078H155.561C155.729 61.078 155.822 61.1461 155.822 61.2679C155.822 61.3897 155.744 61.4434 155.561 61.4434H155.382V61.078Z" fill="#003767"/>
<path d="M54.0587 73.4502H54.7107L55.3734 76.2514H55.3841L56.122 73.4502H56.7776L57.4976 76.2514H57.5083L58.1925 73.4502H58.8444L57.8343 77.1147H57.1823L56.448 74.3135H56.4373L55.6886 77.1147H55.0259L54.0587 73.4502Z" fill="#003767"/>
<path d="M63.9668 73.4502H64.651L66.0623 77.1147H65.3746L65.0307 76.1439H63.5692L63.2253 77.1147H62.5626L63.9668 73.4502ZM63.7411 75.6568H64.8587L64.3107 74.0806H64.3071H64.2964L63.7411 75.6568Z" fill="#003767"/>
<path d="M69.4402 73.4502H72.4062V74.0054H71.242V77.1147H70.5972V74.0054H69.4366V73.4502H69.4402Z" fill="#003767"/>
<path d="M76.6796 73.4502H79.316V74.0054H77.3208V74.9654H79.1692V75.4884H77.3208V76.5594H79.3519V77.1147H76.6796V73.4502Z" fill="#003767"/>
<path d="M83.7614 73.4502H85.5131C86.3155 73.4502 86.7238 73.8191 86.7238 74.4424C86.7238 75.1445 86.2367 75.3236 86.1185 75.3666V75.3774C86.3405 75.4096 86.6629 75.5744 86.6629 76.1511C86.6629 76.5774 86.7238 76.9678 86.8635 77.1147H86.1758C86.0791 76.9571 86.0791 76.7565 86.0791 76.5774C86.0791 75.9039 85.9394 75.6066 85.3519 75.6066H84.4062V77.1147H83.765V73.4502H83.7614ZM84.4062 75.1159H85.4594C85.8641 75.1159 86.0862 74.9153 86.0862 74.532C86.0862 74.0663 85.7817 73.9732 85.4486 73.9732H84.4062V75.1159Z" fill="#003767"/>
<path d="M96.485 73.4502H97.1262V74.9081H98.7955V73.4502H99.4367V77.1147H98.7955V75.4633H97.1262V77.1147H96.485V73.4502Z" fill="#003767"/>
<path d="M104.058 73.4502H106.694V74.0054H104.699V74.9654H106.547V75.4884H104.699V76.5594H106.73V77.1147H104.058V73.4502Z" fill="#003767"/>
<path d="M112.121 73.4502H112.805L114.216 77.1147H113.529L113.185 76.1439H111.723L111.379 77.1147H110.717L112.121 73.4502ZM111.895 75.6568H113.013L112.465 74.0806H112.461H112.45L111.895 75.6568Z" fill="#003767"/>
<path d="M117.591 73.4502H120.557V74.0054H119.392V77.1147H118.751V74.0054H117.591V73.4502Z" fill="#003767"/>
<path d="M124.834 73.4502H127.47V74.0054H125.475V74.9654H127.323V75.4884H125.475V76.5594H127.506V77.1147H124.83V73.4502H124.834Z" fill="#003767"/>
<path d="M131.915 73.4502H133.667C134.47 73.4502 134.878 73.8191 134.878 74.4424C134.878 75.1445 134.391 75.3236 134.272 75.3666V75.3774C134.495 75.4096 134.817 75.5744 134.817 76.1511C134.817 76.5774 134.878 76.9678 135.018 77.1147H134.33C134.233 76.9571 134.233 76.7565 134.233 76.5774C134.233 75.9039 134.093 75.6066 133.506 75.6066H132.56V77.1147H131.919V73.4502H131.915ZM132.557 75.1159H133.61C134.015 75.1159 134.237 74.9153 134.237 74.532C134.237 74.0663 133.932 73.9732 133.599 73.9732H132.557V75.1159Z" fill="#003767"/>
<path d="M139.8 75.8934C139.8 76.4593 140.215 76.6779 140.727 76.6779C141.293 76.6779 141.501 76.402 141.501 76.1226C141.501 75.8396 141.347 75.7286 141.197 75.6713C140.939 75.5746 140.606 75.5065 140.104 75.3668C139.477 75.1985 139.295 74.8187 139.295 74.439C139.295 73.7047 139.972 73.3608 140.634 73.3608C141.401 73.3608 142.042 73.7656 142.042 74.5322H141.401C141.369 74.0593 141.053 73.8838 140.609 73.8838C140.312 73.8838 139.936 73.9913 139.936 74.3602C139.936 74.6182 140.111 74.7614 140.373 74.8331C140.43 74.8474 141.24 75.0587 141.429 75.1161C141.913 75.2593 142.142 75.6713 142.142 76.051C142.142 76.8713 141.415 77.2008 140.684 77.2008C139.846 77.2008 139.169 76.7996 139.155 75.8934H139.8Z" fill="#003767"/>
</g>
<defs>
<clipPath id="clip0_22_409">
<rect width="120" height="34.0299" fill="white" transform="translate(40 42.9849)"/>
</clipPath>
</defs>
</svg>
