<svg width="200" height="120" viewBox="0 0 200 120" fill="none" xmlns="http://www.w3.org/2000/svg">
<rect width="200" height="120" rx="16" fill="white"/>
<g clip-path="url(#clip0_22_413)">
<path d="M47.4667 52.5913H40V67.4083H41.9855L47.4667 59.9998V52.5913Z" fill="#F37321"/>
<path d="M52.9479 52.5913L47.4667 59.9974V59.9998V67.4083H59.7551V52.5913H52.9479Z" fill="#243770"/>
<path d="M49.8836 58.8291H50.4921L50.4873 62.0436L53.583 58.8339H54.3661L52.0582 61.183L54.4606 64.2158H53.6994L51.6339 61.6073L50.4873 62.7661L50.4848 64.2109H49.8788L49.8836 58.8291Z" fill="white"/>
<path d="M58.3152 62.4144C58.1804 62.0933 57.9807 61.8036 57.7285 61.5635C57.4661 61.3176 57.1581 61.1257 56.8218 60.9986C56.4522 60.86 56.0603 60.7901 55.6655 60.7925H53.7964V62.1816L54.4024 62.9889V61.3525H55.663C55.978 61.3484 56.2908 61.4052 56.5842 61.5198C56.8437 61.618 57.0799 61.7692 57.2778 61.9637C57.4756 62.1582 57.6308 62.3917 57.7333 62.6495C57.8382 62.9149 57.8909 63.1981 57.8885 63.4835V63.5004C57.8901 63.786 57.8366 64.0691 57.7309 64.3344C57.6288 64.5859 57.4771 64.8142 57.2849 65.0059C57.0819 65.2003 56.842 65.352 56.5794 65.4519C56.2841 65.5619 55.9709 65.6162 55.6558 65.6119H54.3952V65.0301H53.7915V66.1719H55.6582C56.0541 66.1782 56.4475 66.1082 56.817 65.9659C57.1529 65.837 57.4608 65.6443 57.7236 65.3986C57.9782 65.159 58.179 64.8682 58.3127 64.5453C58.4529 64.2098 58.5238 63.8494 58.5212 63.4859V63.4713C58.5258 63.1086 58.4557 62.7488 58.3152 62.4144Z" fill="white"/>
<path d="M76.5867 67.4058L67.7649 57.9877V67.4058H63.8109V52.5889H67.5055L76.0412 61.7113V52.5889H79.9976V67.4058H76.5867Z" fill="#243770"/>
<path d="M156.592 67.4058L147.77 57.9877V67.4058H143.813V52.5889H147.508L156.044 61.7113V52.5889H160V67.4058H156.592Z" fill="#243770"/>
<path d="M109.622 67.4058H106.274L99.3067 52.5889H103.493L107.998 62.9501L112.502 52.5889H116.589L109.622 67.4058Z" fill="#243770"/>
<path d="M122.153 52.5889H118.179V67.4058H122.153V52.5889Z" fill="#243770"/>
<path d="M86.7127 57.069H82.7127C82.9551 55.9635 83.5176 54.6035 84.543 53.7163C86.0315 52.4266 87.9151 52.0532 90.5576 52.0532C93.2509 52.0532 95.3648 52.446 96.8606 53.7163C97.9903 54.6859 98.9091 56.0629 98.9164 57.915V67.4059H94.9406V66.0532C94.2031 66.5543 93.4119 66.9714 92.5818 67.2969C91.3309 67.7817 89.983 67.9466 88.3879 67.9466C86.4751 67.9466 85.2679 67.2896 84.1697 66.492C83.612 66.0783 83.1598 65.5389 82.8498 64.9176C82.5398 64.2963 82.3807 63.6106 82.3854 62.9163C82.3854 61.2193 82.7273 60.0484 84.4145 59.2556C85.9539 58.5284 87.8085 58.4023 90.2206 58.4023H94.9406C94.9406 56.5163 93.8012 54.5502 90.64 54.5502C88.4218 54.5502 87.2461 55.8278 86.7176 57.0593M90.497 60.7926C88.1939 60.829 86.2788 61.372 86.3636 62.732C86.48 64.6714 88.4461 64.8411 89.2848 64.8411C91.3915 64.8411 92.9382 64.4605 93.8182 63.755C94.7685 62.9938 94.8048 61.9175 94.8121 60.7999C94.8121 60.7999 91.4861 60.7853 90.497 60.7999" fill="#243770"/>
<path d="M132.975 65.2314C130.247 65.2314 128.592 63.6653 128.368 61.595C128.368 61.595 128.32 61.2169 128.315 60.9284H141.617C141.617 58.2156 140.902 56.0799 139.503 54.5696C137.978 52.8702 135.758 52.0532 132.863 52.0532C130.238 52.0532 128.158 52.812 126.657 54.3563C125.088 55.8738 124.337 57.7502 124.337 59.9853C124.337 62.492 125.156 64.4484 126.793 65.8763C128.327 67.2459 130.407 67.9466 133.035 67.9466C135.387 67.9466 137.331 67.3647 138.899 66.2253C140.08 65.3486 140.943 64.11 141.355 62.6981H137.377C136.776 64.1987 135.195 65.2314 132.975 65.2314ZM132.975 54.7659C135.702 54.7659 137.358 56.3296 137.581 58.4023H128.378C128.592 56.3199 130.247 54.7659 132.984 54.7659" fill="#243770"/>
</g>
<defs>
<clipPath id="clip0_22_413">
<rect width="120" height="15.8933" fill="white" transform="translate(40 52.0532)"/>
</clipPath>
</defs>
</svg>
