<svg width="200" height="120" viewBox="0 0 200 120" fill="none" xmlns="http://www.w3.org/2000/svg">
<rect width="200" height="120" rx="16" fill="white"/>
<g clip-path="url(#clip0_25_6542)">
<path d="M52.8128 47.1875C45.7432 47.1875 40 52.9307 40 60.0003C40 67.0699 45.7432 72.8131 52.8128 72.8131C59.8824 72.8131 65.6256 67.0699 65.6256 60.0003C65.6256 52.9307 59.8824 47.1875 52.8128 47.1875ZM52.8128 71.529C46.4487 71.529 41.2841 66.3502 41.2841 60.0003C41.2841 53.6503 46.4487 48.4716 52.8128 48.4716C59.1769 48.4716 64.3415 53.6503 64.3415 60.0003C64.3415 66.3502 59.1769 71.529 52.8128 71.529Z" fill="black"/>
<path d="M57.3848 51.7876C57.3424 51.7594 57.286 51.7452 57.2295 51.7452C57.0602 51.7452 56.9332 51.8722 56.9332 52.0416V56.0491C56.9332 56.1902 56.8203 56.3031 56.6792 56.3031H48.9182C48.7771 56.3031 48.6783 56.1902 48.6642 56.0491V52.0416C48.6642 51.9851 48.6501 51.9428 48.6218 51.8864C48.5372 51.7452 48.3537 51.7029 48.2126 51.7876C45.3481 53.5515 43.6124 56.6135 43.6124 60.0002C43.6124 63.3868 45.3481 66.4489 48.2408 68.2128C48.2832 68.241 48.3396 68.2551 48.3961 68.2551C48.5654 68.2551 48.6924 68.1281 48.6924 67.9588V63.9513C48.6924 63.8102 48.8053 63.7114 48.9464 63.6973H56.7074C56.8486 63.6973 56.9614 63.8102 56.9614 63.9513V67.9588C56.9614 68.0152 56.9756 68.0576 57.0038 68.114C57.0884 68.2551 57.2719 68.2975 57.413 68.2128C60.3057 66.4489 62.0414 63.3868 62.0414 60.0002C62.0414 56.6135 60.2775 53.5515 57.3848 51.7876ZM47.1966 65.0237L47.239 65.5035L46.9285 65.1225C44.5438 62.1168 44.5438 57.8694 46.9285 54.8638L47.1966 54.5251L47.239 54.4828L47.1966 54.9767C47.1543 55.3718 47.1402 55.781 47.1402 56.1902V63.796C47.1402 64.2053 47.1684 64.6145 47.1966 65.0237ZM56.9332 61.9193C56.9332 62.0604 56.8203 62.1733 56.6792 62.1733H48.9182C48.7771 62.1733 48.6783 62.0604 48.6642 61.9193V58.0811C48.6642 57.94 48.7771 57.8271 48.9182 57.8271H56.6792C56.8203 57.8271 56.9332 57.94 56.9332 58.0811V61.9193ZM58.683 65.1225L58.3725 65.5035L58.4149 65.0237C58.4572 64.6286 58.4713 64.2194 58.4713 63.8102V56.1902C58.4713 55.781 58.4572 55.3718 58.4149 54.9767L58.4008 54.765L58.3867 54.5392V54.4828L58.683 54.8638C59.8401 56.3031 60.4751 58.1375 60.4751 59.9861C60.4751 61.8346 59.8401 63.6832 58.683 65.1225Z" fill="black"/>
<path d="M84.9577 59.7745C84.8871 59.7463 84.8025 59.718 84.8025 59.6334C84.8025 59.5769 84.8307 59.5346 84.8871 59.5064C84.9859 59.464 87.4271 58.5892 87.4271 55.7105C87.4271 52.5073 85.2681 50.6023 81.6275 50.6023H72.8081V69.4264H82.4318C85.2399 69.4264 88.2597 67.4368 88.2597 64.2336C88.2597 61.1715 85.9455 60.099 84.9577 59.7745ZM77.2531 54.4546C77.2531 54.3841 77.3095 54.3276 77.3801 54.3276H80.8796C82.0367 54.3276 82.8269 55.1037 82.8269 56.2608C82.8269 57.164 82.1214 58.1376 80.7949 58.1376H77.3801C77.3095 58.1376 77.2531 58.0812 77.2531 58.0106V54.4546ZM80.8796 65.7152H77.3801C77.3095 65.7152 77.2531 65.6588 77.2531 65.5882V61.8347C77.2531 61.7641 77.3095 61.7077 77.3801 61.7077H80.7949C82.4741 61.7077 83.4337 62.4274 83.4337 63.6973C83.4337 65.0097 82.5447 65.7152 80.8796 65.7152ZM118.048 58.0953L117.371 57.9542C115.847 57.6296 114.365 57.2204 114.365 55.9081C114.365 54.5957 115.593 54.0031 116.806 54.0031C118.231 54.0031 119.643 54.6381 120.715 55.7387L123.509 52.973C122.31 51.6465 120.179 50.1226 116.736 50.1226C112.587 50.1226 109.793 52.4791 109.793 55.9927C109.793 59.7039 112.714 61.1009 115.169 61.623L115.833 61.7641C118.217 62.2721 119.346 62.6531 119.346 64.0078C119.346 65.2213 118.26 66.0257 116.651 66.0257C114.76 66.0257 113.081 65.1931 111.811 63.6268L108.946 66.4349C110.47 68.2411 112.488 69.878 116.707 69.878C120.306 69.878 123.961 67.7895 123.961 63.782C123.946 59.6757 121.152 58.7444 118.048 58.0953ZM155.23 50.6023V57.4885C155.23 57.5591 155.174 57.6155 155.104 57.6155H149.318C149.247 57.6155 149.191 57.5591 149.191 57.4885V50.6023H144.45V69.4264H149.191V62.0322C149.191 61.9617 149.247 61.9052 149.318 61.9052H155.104C155.174 61.9052 155.23 61.9617 155.23 62.0322V69.4264H160V50.6023H155.23ZM134.911 65.5741C132.78 65.5741 130.48 63.7961 130.48 59.8874C130.48 56.3173 132.639 54.4546 134.77 54.4546C136.322 54.4546 137.408 55.1037 138.269 56.5431L141.91 54.1301C140.047 51.3925 137.832 50.1508 134.741 50.1508C128.688 50.1508 125.978 55.0473 125.978 59.8874C125.978 65.7717 129.563 69.878 134.685 69.878C138.495 69.878 140.23 68.481 142.051 65.8987L138.382 63.4292C137.564 64.7557 136.675 65.5741 134.911 65.5741ZM98.9135 50.1226C93.7347 50.1226 90.2634 54.0878 90.2634 60.0003C90.2634 65.9128 93.7347 69.878 98.9135 69.878C104.092 69.878 107.564 65.9128 107.564 60.0003C107.564 54.0878 104.092 50.1226 98.9135 50.1226ZM98.9135 65.5741C96.3735 65.5741 94.7366 63.3869 94.7366 60.0003C94.7366 56.6277 96.3735 54.4546 98.9135 54.4546C101.468 54.4546 103.119 56.6277 103.119 60.0003C103.119 63.3869 101.468 65.5741 98.9135 65.5741Z" fill="#F80000"/>
</g>
<defs>
<clipPath id="clip0_25_6542">
<rect width="120" height="25.632" fill="white" transform="translate(40 47.1841)"/>
</clipPath>
</defs>
</svg>
