<svg width="200" height="120" viewBox="0 0 200 120" fill="none" xmlns="http://www.w3.org/2000/svg">
<rect width="200" height="120" rx="16" fill="white"/>
<g clip-path="url(#clip0_25_6554)">
<path d="M87.2701 60.0158C87.2701 51.2814 93.2285 47.6289 98.9964 47.6289C104.764 47.6289 110.691 51.2687 110.691 60.0158C110.691 68.7628 104.729 72.3708 98.9964 72.3708C93.2635 72.3708 87.2701 68.731 87.2701 60.0158ZM104.25 60.0158C104.25 55.6327 102.344 52.9584 98.9964 52.9584C95.6487 52.9584 93.7113 55.62 93.7113 60.0158C93.7113 64.4115 95.617 67.2319 98.9964 67.2319C102.376 67.2319 104.25 64.3829 104.25 60.0158Z" fill="#231F20"/>
<path d="M112.45 71.92V48.0801H121.76C127.88 48.0801 131.621 50.1096 131.621 55.8425C131.621 59.5808 130.033 61.7406 126.914 62.8046L132.425 71.92H125.596L120.537 63.643H118.768V71.92H112.45ZM118.768 58.7455H121.537C124.183 58.7455 125.349 58.0023 125.349 56.0077C125.349 54.0131 124.189 53.2984 121.537 53.2984H118.768V58.7455Z" fill="#231F20"/>
<path d="M133.953 71.92V48.0801H140.397V56.3951L146.968 48.0801H154.445L146.422 57.475L155.153 71.9073H147.87L142.233 62.379L140.397 64.6816V71.92H133.953Z" fill="#231F20"/>
<path d="M89.8015 48.0801H82.4837L78.2627 55.4264L74.067 48.0801H66.7111L75.0262 61.9661V71.92H81.5023V61.9661L89.8142 48.0801H89.8015Z" fill="#231F20"/>
<path d="M155.534 49.8742C155.531 49.5782 155.588 49.2846 155.7 49.0106C155.812 48.7367 155.977 48.4878 156.187 48.2786C156.396 48.0695 156.645 47.9043 156.919 47.7926C157.193 47.681 157.487 47.6253 157.783 47.6287C158.076 47.624 158.368 47.6783 158.639 47.7883C158.911 47.8984 159.158 48.062 159.366 48.2694C159.573 48.4768 159.737 48.7237 159.847 48.9956C159.957 49.2675 160.011 49.5587 160.006 49.852C160.01 50.148 159.954 50.4416 159.842 50.7158C159.731 50.9899 159.566 51.239 159.356 51.4485C159.147 51.6579 158.898 51.8235 158.624 51.9355C158.35 52.0475 158.057 52.1037 157.761 52.1007C157.467 52.1063 157.175 52.0525 156.902 51.9426C156.63 51.8327 156.382 51.6689 156.174 51.461C155.966 51.2532 155.802 51.0055 155.692 50.7328C155.583 50.4602 155.529 50.1681 155.534 49.8742ZM159.543 49.8742C159.551 49.6353 159.51 49.3971 159.424 49.1742C159.338 48.9513 159.207 48.7482 159.04 48.5772C158.873 48.4062 158.673 48.2708 158.452 48.1793C158.231 48.0878 157.994 48.0421 157.754 48.0448C157.518 48.042 157.284 48.0872 157.066 48.1777C156.848 48.2681 156.651 48.4018 156.486 48.5708C156.321 48.7398 156.192 48.9405 156.107 49.1607C156.023 49.3809 155.983 49.6161 155.992 49.852C155.983 50.0909 156.023 50.3291 156.11 50.5519C156.196 50.7748 156.328 50.9776 156.495 51.148C156.663 51.3183 156.864 51.4527 157.085 51.5428C157.307 51.6329 157.544 51.6768 157.783 51.6719C158.019 51.676 158.252 51.6319 158.47 51.5426C158.688 51.4532 158.885 51.3203 159.05 51.152C159.215 50.9837 159.343 50.7836 159.428 50.5639C159.513 50.3442 159.552 50.1095 159.543 49.8742ZM156.881 48.6038H157.834C158.425 48.6038 158.787 48.8642 158.787 49.4073C158.799 49.5564 158.763 49.7054 158.684 49.8324C158.605 49.9594 158.488 50.0576 158.348 50.1124L158.834 51.043H158.199L157.764 50.1696H157.472V51.0303H156.881V48.6038ZM157.793 49.7472C158.053 49.7472 158.199 49.6582 158.199 49.4296C158.199 49.2009 158.053 49.1119 157.793 49.1119H157.475V49.7472H157.793Z" fill="#231F20"/>
<path d="M40 71.9198H63.8431V48.0767H48.7851V48.0989H47.0764V48.0767H40V53.2251L40.0127 53.2378V55.0355L40 55.026V58.3736L40.0127 58.3673V60.165L40 60.1808V71.9198Z" fill="#00549E"/>
<path d="M56.1982 58.2688L55.5217 57.0937L52.9268 58.5928L49.6554 56.6871L52.9268 54.7973L55.5153 56.2901L56.195 55.1181L54.2893 54.0128L55.8456 53.1172L54.9913 51.6371L53.435 52.5328V50.3444H52.0692V53.3458L48.7978 55.2356V51.4402L51.3864 49.9442L50.7067 48.7691L48.801 49.8743V48.0767H47.0764V52.0754C46.6728 52.1508 46.2809 52.279 45.9108 52.4565L43.5541 49.2169L42.1693 50.2301L44.5291 53.4729C44.2481 53.7708 44.0068 54.1039 43.8113 54.4638L40 53.2251V55.026L43.2778 56.09C43.25 56.2932 43.2351 56.4979 43.2333 56.703C43.2353 56.908 43.2502 57.1128 43.2778 57.316L40 58.3736V60.1777L43.8113 58.9422C44.0089 59.3014 44.2524 59.6334 44.5355 59.9299L42.1693 63.1727L43.5541 64.1796L45.9108 60.9368C46.2809 61.1143 46.6728 61.2424 47.0764 61.3179V65.323H48.7851V63.5094L50.7067 64.6179L51.3832 63.4427L48.7851 61.9436V58.1831L52.0629 60.0887V63.0711H53.4191V60.8573L54.969 61.753L55.8234 60.2729L54.2671 59.3805L56.1982 58.2688ZM44.942 56.703C44.9437 56.0605 45.1522 55.4356 45.5366 54.9208C45.921 54.406 46.4609 54.0286 47.0764 53.8445V59.5615C46.4611 59.3769 45.9215 58.9994 45.5372 58.4847C45.1529 57.97 44.9442 57.3453 44.942 56.703Z" fill="white"/>
</g>
<defs>
<clipPath id="clip0_25_6554">
<rect width="120" height="24.7419" fill="white" transform="translate(40 47.6289)"/>
</clipPath>
</defs>
</svg>
