<svg width="200" height="120" viewBox="0 0 200 120" fill="none" xmlns="http://www.w3.org/2000/svg">
<rect width="200" height="120" rx="16" fill="white"/>
<g clip-path="url(#clip0_22_215)">
<path d="M105.999 53.257L104.258 57.9565C104.126 58.3088 104.063 58.9927 104.056 59.0784C104.048 58.9927 103.986 58.3088 103.854 57.9565L102.114 53.257H96.4373V64.6076H100.08V57.8552C100.086 58.1162 100.139 58.3741 100.235 58.6166L102.816 64.6076H105.306L107.887 58.6166C107.983 58.374 108.035 58.1161 108.041 57.8552V64.6076H111.685L111.679 53.2563L105.999 53.257ZM118.624 53.257L112.887 64.6045V64.6082H117.349L118.413 62.509H123.311L124.371 64.6082H128.834L123.092 53.257H118.624ZM119.482 59.634C119.482 59.634 120.503 57.6105 120.678 57.2595C120.789 57.0243 120.85 56.7686 120.857 56.5087C120.864 56.7686 120.924 57.0243 121.035 57.2595C121.211 57.6105 122.231 59.634 122.231 59.634H119.482ZM139.246 59.4888C139.236 59.2316 139.145 58.9843 138.984 58.7831L134.246 53.2576H130.045V64.6076H134.246V58.3757C134.254 58.6309 134.342 58.8772 134.496 59.0803L139.059 64.6076H143.231V53.2576H139.244L139.246 59.4888ZM156.014 53.2563V59.4888C156.005 59.2316 155.913 58.9842 155.753 58.7831L151.014 53.2576H146.814V64.6076H151.014V58.3757C151.023 58.6309 151.11 58.8772 151.265 59.0803L155.828 64.6076H160V53.2576L156.014 53.2563ZM48.7641 60.1596C48.6534 60.4009 48.5925 60.662 48.5851 60.9273C48.5777 60.662 48.5168 60.4009 48.4062 60.1596L45.0819 53.257H40L46.0554 64.6082H51.1141L57.1702 53.257H52.0877L48.7641 60.1596ZM58.8471 64.6082H63.0724V53.257H58.8471V64.6082ZM70.8979 59.9831H77.238V57.4472H70.8979V56.0519H78.6151V53.257H66.8928V64.6082H78.923V61.5536H70.8979V59.9831ZM90.044 65.2565H84.7995C84.4378 65.2565 83.966 65.0888 83.966 64.6026C83.966 64.0839 84.4378 63.9488 84.7995 63.9488H93.5028V60.8941H84.466C82.3111 60.8941 80.5172 62.1411 80.5172 64.5357C80.5172 66.6905 82.1159 68.3092 84.2895 68.3105H89.7018C90.0634 68.3105 90.5352 68.4781 90.5352 68.9643C90.5352 69.4836 90.0634 69.6188 89.7018 69.6188H80.785V72.6734H90.0321C92.187 72.6734 93.9809 71.3594 93.9809 68.9643C93.9809 66.5354 92.0268 65.2565 90.0409 65.2565H90.044ZM90.044 51.6884H84.7995C84.4378 51.6884 83.966 51.5207 83.966 51.0345C83.966 50.5152 84.4378 50.3807 84.7995 50.3807H93.5028V47.3267H84.466C82.3111 47.3267 80.5172 48.5737 80.5172 50.9682C80.5172 53.1224 82.1159 54.7417 84.2895 54.743H89.7018C90.0634 54.743 90.5352 54.9107 90.5352 55.3968C90.5352 55.9161 90.0634 56.0513 89.7018 56.0513H80.785V59.1059H90.0321C92.187 59.1059 93.9809 57.792 93.9809 55.3968C93.9809 52.9648 92.0268 51.6884 90.0409 51.6884H90.044Z" fill="#EF4423"/>
</g>
<defs>
<clipPath id="clip0_22_215">
<rect width="120" height="25.3467" fill="white" transform="translate(40 47.3267)"/>
</clipPath>
</defs>
</svg>
