<svg width="200" height="120" viewBox="0 0 200 120" fill="none" xmlns="http://www.w3.org/2000/svg">
<rect width="200" height="120" rx="16" fill="white"/>
<g clip-path="url(#clip0_25_6551)">
<path d="M117.542 61.3212C116.049 61.9597 115.284 64.9452 114.361 66.312C113.663 67.3359 112.866 68.4024 112.237 69.4935C111.982 69.9293 111.76 70.9823 111.309 71.194C110.986 71.3408 109.824 70.0659 108.498 70.4491C105.039 71.4416 99.0467 77.8428 99.3939 82.4683C99.5127 84.0692 99.776 85.2466 101.36 85.4124C103.578 85.6398 105.135 84.2888 106.108 83.1315C106.315 82.8828 106.652 82.2252 106.983 82.1491C107.379 82.0583 107.37 82.726 107.407 82.996C107.653 84.7021 109.029 85.9557 110.961 85.4124C111.692 85.2085 112.175 84.5274 112.741 84.4322C113.435 84.3089 113.803 85.1424 114.305 85.306C115.448 85.6768 116.823 85.0819 117.623 84.7481C118.824 84.2395 119.699 83.22 120.568 82.3597C121.036 81.897 121.084 81.2327 121.841 81.0333C122.153 81.5688 121.935 82.5053 121.867 83.1562C121.745 84.3145 122.306 85.7261 123.672 85.1458C126.236 84.0557 127.887 81.6225 129.745 79.7876C130.262 79.2801 130.584 78.5093 131.365 78.2774C131.581 78.8353 130.794 80.9437 130.436 81.4041C130.197 81.7133 129.468 84.5128 129.745 84.906C129.928 85.1626 130.308 85.0472 130.675 85.0685C131.036 85.0819 131.457 85.2992 131.843 85.1458C132.642 84.8276 134.133 80.2637 134.709 79.233C135.311 78.1419 136.19 76.8581 137.123 76.0705C138.004 75.3289 139.142 74.2725 140.439 74.0317C141.053 73.9152 142.228 74.1269 142.722 73.8715C144.089 73.1511 142.344 71.3397 141.156 71.5906C140.735 71.678 140.024 71.687 139.484 71.8572C138.66 72.1115 137.779 73.094 136.964 73.1276C136.68 72.6526 137.624 69.3893 135.108 70.3953C134.296 70.7191 133.798 71.8147 133.275 72.4667C131.458 74.7318 129.129 76.6295 127.254 78.8331C126.594 79.6038 125.924 80.9537 124.865 81.2753C124.236 78.86 127.376 75.7893 127.598 73.634C127.782 71.827 125.666 73.3505 125.766 72.4924C125.809 72.1295 126.074 71.7598 126.005 71.3262C125.791 69.9886 123 70.7459 121.92 70.9812C119.729 71.4528 115.227 76.6632 114.175 78.5665C113.413 79.9422 113.267 81.8477 111.918 82.6297C111.086 83.1125 110.711 82.3955 110.672 81.6214C110.551 79.261 111.661 77.6064 112.315 75.9675C113.897 72.0286 115.984 68.8381 117.994 65.3026C118.429 64.5341 119.119 63.8911 119.425 62.9691C119.746 62.0135 118.939 60.9773 117.913 61.1644C117.8 61.1834 117.661 61.2697 117.542 61.3212ZM70.5036 32.777C71.3124 32.693 71.961 33.2508 72.0675 33.8647C72.2075 34.6758 71.7807 35.6101 71.644 36.2789C71.0144 39.289 69.9625 41.934 69.2836 44.7929C68.719 47.1622 70.7567 45.8963 72.3632 46.3075C73.2628 46.5382 73.0051 47.4972 73.6347 47.7952C74.8311 46.8228 76.6863 41.4343 78.6501 41.9833C79.171 42.1278 79.5429 42.726 79.3648 43.415C79.1979 44.0782 78.761 44.8299 78.3577 45.2992C76.7658 47.1309 75.6803 49.5753 74.5096 51.8001C73.9652 52.833 74.83 52.2941 75.2008 51.7732C75.8438 50.8669 76.6079 50.2071 77.2442 49.2795C78.0978 48.026 79.5609 47.1185 80.5321 45.9624C80.7808 45.6678 80.95 45.2186 81.2737 45.0069C83.214 43.7466 84.1674 45.6891 83.7686 47.7683C83.6857 48.1917 82.832 51.1011 83.5826 50.3931C83.996 50.0054 84.4273 49.6223 84.8328 49.2246C85.636 48.4304 86.372 47.1499 87.3523 46.573C87.7567 46.3321 88.7324 45.8426 89.2601 46.2022C91.1444 47.4893 85.6136 55.6426 86.6868 56.6004C87.1159 56.9802 88.421 55.8241 88.6518 55.6448C90.34 54.3319 90.6369 54.1549 91.411 51.8494C91.9823 50.1388 92.5772 48.5917 93.4543 47.1544C94.1108 46.0756 97.7516 41.0938 99.5004 42.4325C100.706 43.3556 100.283 45.3429 99.8488 46.8093C98.7039 50.6787 96.0925 52.1676 93.8767 54.7957C93.0589 55.7658 94.1691 55.8476 94.8076 55.274C95.2837 54.8416 95.9301 54.5772 96.3984 54.1325C98.1393 52.4857 99.7592 50.6933 101.464 49.0129C102.232 48.2578 103.081 47.4389 103.722 46.5719C104.33 45.7462 104.358 44.7357 105.367 44.3168C106.099 44.0087 106.783 44.7794 106.853 45.3497C106.948 46.1529 107.697 45.0976 107.86 44.8747C108.115 44.5083 108.376 44.1857 108.974 44.3952C110.459 44.9161 109.909 46.2123 110.647 46.5976C111.772 47.1858 115.32 44.133 115.764 43.5203C116.045 43.1349 116.224 42.8246 116.801 42.7249C117.57 42.5893 118.019 42.884 118.366 43.2548C118.408 43.3052 118.463 43.3578 118.495 43.415L118.55 43.4923C118.566 43.5203 118.59 43.5516 118.603 43.5707C118.621 43.6032 118.649 43.6625 118.658 43.6805C118.871 44.2171 115.232 51.3498 114.757 52.7792C114.379 53.914 113.719 54.9548 113.377 56.2285C113.226 56.7998 113.338 58.0287 113.034 58.5911C112.875 58.8779 112.179 59.0695 111.89 59.2241C111.594 59.3865 111.223 59.3159 110.961 59.1714C109.572 58.4007 111.482 53.6183 111.865 52.6728C112.006 52.3244 113.503 49.07 113.005 48.8258C112.434 48.5413 111.391 49.0051 110.912 49.0913C109.538 49.3266 108.995 47.8568 108.522 48.0517C107.104 48.6499 104.66 55.3155 103.879 57.1561C103.543 57.9481 103.509 58.6427 102.819 59.065C100.831 60.276 100.726 57.4429 101.145 56.3047C101.46 55.46 102.897 52.7243 102.685 51.874C101.745 52.0701 101.462 52.8229 100.856 53.3349C98.8966 54.985 96.9002 57.1258 94.6474 58.3772C91.579 60.0766 91.4502 57.2121 90.3512 57.4731C89.0853 57.7711 88.2306 59 86.6868 59.3014C83.6745 59.8996 83.0057 57.5392 83.7943 55.2964C84.5886 53.0503 83.7529 53.9622 82.7895 54.7128C82.785 54.715 82.7615 54.7374 82.7615 54.7374C82.4598 54.9827 82.1679 55.2398 81.8865 55.5082C81.7263 55.6605 81.5807 55.8577 81.4082 55.9865C81.285 56.0795 81.1763 56.1512 81.0643 56.2509C80.9937 56.308 80.959 56.3596 80.9029 56.4391C80.5781 56.8872 80.2633 57.5414 79.7883 57.8439C78.9615 58.3626 77.1758 57.7218 77.3472 56.6755C77.5354 55.5418 78.5829 54.4125 78.7543 53.2531C78.8842 52.3804 79.6146 51.9323 79.4724 50.8636C78.36 51.0719 74.2105 56.6912 73.1563 57.8159C72.7833 58.2136 72.7855 59.1255 72.333 59.4347C71.8916 59.7338 71.0783 59.792 70.5047 59.5915C68.1869 58.7894 70.2784 54.091 70.8789 53.0133C71.1892 52.4487 73.1283 48.7474 73.0533 48.5816C72.3957 48.7743 71.5017 48.9614 70.6626 48.8751C69.4897 48.7552 68.2776 48.2679 67.7959 49.4588C67.5842 49.9864 67.6111 50.6586 67.3982 51.1828C66.6622 53.0066 65.9284 55.3222 65.5431 57.3902C65.3212 58.5844 65.5778 60.136 65.0389 61.0008C64.7443 61.4702 63.7025 61.7368 62.9956 61.45C62.5027 61.2517 62.2024 60.7297 62.0422 60.2021C61.7611 59.2924 61.7465 58.2057 61.4844 57.286C61.276 56.5679 60.7797 56.028 60.4515 55.4275C59.4735 53.6709 62.8869 55.5093 63.3675 54.6859C63.7674 53.9958 63.6778 52.8307 64.0027 52.1384C64.1898 51.7452 64.9628 49.8912 64.6132 49.3792L64.5875 49.3557C64.4049 49.2101 58.6378 49.9382 58.2737 50.1488C57.5982 50.5376 57.159 51.5996 56.6269 52.1664C55.9884 52.8498 55.5414 53.7001 54.9297 54.4215C53.8162 55.7423 52.5212 56.8928 51.5073 58.3211C51.0615 58.9507 50.405 60.6132 49.8359 61.0019C49.1649 61.4556 47.7578 60.993 47.4733 60.4698C46.8874 59.3787 48.6439 57.8585 49.092 57.3375C49.7496 56.5881 54.7583 51.1593 54.5309 50.4939C54.4883 50.3684 53.3412 50.2082 53.2068 50.1768C52.315 49.9651 49.6387 49.5125 50.6313 48.0517C51.2284 47.1734 52.6847 47.5554 53.4711 47.8691C54.1881 48.157 56.6874 47.9655 57.2106 47.6294C57.8749 47.2026 59.2394 44.9822 59.7838 44.2361C61.2659 42.204 63.0202 40.3006 64.6132 38.3189C65.4299 37.3017 66.688 36.531 67.48 35.5059C68.2138 34.5571 69.0136 32.9248 70.5036 32.777ZM120.594 40.6558C122.506 40.4362 122.424 37.4709 120.302 37.6837C118.35 37.8786 118.408 40.9078 120.594 40.6558ZM67.2671 39.4885C66.5804 39.624 63.0729 44.4882 62.2529 45.2992C61.9168 45.6264 61.5852 45.9288 61.3242 46.3321C60.4649 47.6551 62.9788 46.8754 63.5781 46.7847C64.1495 46.694 65.0378 46.806 65.4904 46.573C66.3463 46.1249 66.8739 41.9564 67.2929 40.7611C67.3545 40.5874 67.853 39.3708 67.2671 39.4885ZM121.841 46.5719C121.325 46.9774 120.747 47.2675 120.329 47.7672C119.787 48.4068 119.367 49.2538 118.712 49.7792C117.599 50.6742 117.255 52.0275 116.482 53.2856C115.874 54.2703 115.329 56.0941 115.79 57.556C116.879 60.984 121.4 59.3607 123.487 58.0075C124.155 57.5706 124.95 56.8043 125.688 56.5209L125.767 56.466C126.095 56.429 126.68 58.0209 126.96 58.245C128.894 59.7976 130.964 57.6075 132 56.7326C132.32 56.4637 132.868 56.2722 133.144 55.9619C133.531 55.5306 133.471 55.1239 134.123 54.929C134.372 55.46 133.8 56.4985 133.859 57.2894C133.982 58.9194 134.857 59.4604 136.406 58.9059C136.898 58.7323 137.206 58.1654 137.519 57.7935C138.283 56.8894 139.277 56.112 140.016 55.1934C141.07 53.8771 141.972 52.5518 143.119 51.343C143.185 51.2758 143.29 51.166 143.385 51.1324C143.827 50.9812 143.476 51.8382 143.436 51.9558C142.955 53.392 141.782 57.9055 144.579 57.5258C145.49 57.3992 145.956 56.8458 146.41 56.252C147.861 54.3465 150.132 53.1187 151.608 51.1851C151.896 50.8132 152.084 50.4435 152.644 50.3359C152.759 50.7571 151.186 54.8741 150.892 55.5631C150.489 56.5231 149.735 59.5523 150.735 60.313C150.881 60.4227 151.152 60.4306 151.372 60.3914C151.758 60.3219 152.086 60.0934 152.222 59.7797C152.644 58.7793 152.708 57.761 153.124 56.783C153.958 54.7946 158.443 47.2463 156.97 44.8971C156.943 44.8534 156.874 44.7806 156.838 44.7369C156.56 44.4176 156.002 44.1218 155.43 44.3392C153.989 44.8892 152.724 46.564 151.718 47.6294C150.994 48.3934 150.138 48.9905 149.332 49.6727C148.748 50.1634 148.318 50.979 147.816 51.5592C147.709 51.6825 146.748 52.703 146.57 52.3535C146.243 51.7183 147.223 50.523 147.368 49.9651C147.675 48.7496 148.596 47.5588 148.88 46.3556C149.028 45.7227 149.062 44.6708 148.67 44.2854C148.349 43.9807 148.076 43.5035 147.419 43.6222C146.381 43.8138 145.517 44.9912 144.926 45.6913C143.449 47.4423 141.634 48.9983 140.149 50.7594C139.484 51.5492 138.983 52.6056 138.161 53.2262C137.861 51.8875 143.645 43.266 139.857 43.7029C138.832 43.8194 138.736 44.8847 137.79 44.9217C137.813 44.924 137.731 44.9542 137.71 44.9497C137.256 44.8881 136.804 44.7089 136.305 44.7626C134.064 44.9923 132.789 46.6088 131.315 47.654C130.97 47.8982 130.664 48.4673 130.386 48.7967C129.689 49.6257 128.818 50.3538 128.212 51.2926C127.722 52.0376 127.442 52.8319 126.913 53.5208C126.356 54.2367 125.264 54.622 124.497 55.1374C123.892 55.5418 123.51 56.0504 122.693 56.2778C121.785 56.5276 121.05 57.2255 120.148 57.3375C116.617 57.7845 120.674 51.7116 120.918 51.3699C120.972 51.2926 121.072 51.2019 121.105 51.1055C121.144 50.9857 121.128 50.821 121.182 50.7347C121.51 50.2037 122.125 49.6996 122.539 49.2201C122.875 48.8225 123.394 48.3699 123.809 48.0506C124.168 47.7806 124.259 48.1167 124.074 48.4001C123.877 48.6981 123.482 49.0095 123.41 49.405C123.239 50.3908 124.244 51.0047 125.084 50.6518C125.788 50.3572 128.823 46.4049 129.038 45.6129C129.211 44.9408 128.898 44.2518 128.61 43.8597C128.298 43.4362 127.696 42.8851 126.885 42.9848C124.475 43.2884 123.363 45.3676 121.841 46.5719ZM96.9574 46.4912C96.4577 46.6032 93.6929 50.495 95.2288 50.1533C95.8831 50.0111 98.4563 46.1574 96.9574 46.4912ZM135.317 48.641C134.716 49.8453 130.834 55.3412 129.745 55.5664C129 53.6429 134.046 47.7896 135.371 47.7403C135.88 47.7201 135.39 48.4965 135.317 48.641ZM157.391 61.245C156.894 61.5049 156.645 62.1468 156.356 62.6218C155.65 63.7936 154.669 65.1021 154.076 66.3388C153.516 67.5103 152.897 68.6523 152.22 69.7601C152.009 70.1007 151.986 70.5712 151.741 70.8748C151.476 71.194 151.051 70.6586 150.944 70.5264C147.752 66.741 136.487 79.9903 140.516 84.775C140.915 85.2477 141.577 85.7865 142.536 85.5983C143.452 85.4157 144.277 85.2343 144.922 84.8041C145.356 84.5106 146.064 83.4542 146.54 83.3701C147.217 83.2514 146.521 86.5909 148.24 86.3948C148.282 86.3859 148.406 86.3612 148.477 86.34C148.526 86.3276 148.617 86.2862 148.691 86.2582C148.972 86.1596 149.271 86.0151 149.484 85.8358C150.517 84.9766 151.737 84.2092 152.694 83.2637C152.997 82.9635 155.556 81.4903 154.126 81.2741C152.7 81.0579 150.286 82.6308 149.989 82.4683C149.76 82.3417 149.928 81.6192 149.989 81.4052C151.718 75.2483 154.827 70.1634 157.762 65.092C158.008 64.6596 159.985 62.2723 159.991 62.2499C160.12 61.4915 158.63 60.9874 157.841 61.0837C157.683 61.11 157.53 61.1646 157.391 61.245ZM51.1343 66.0991C50.554 66.7757 49.8505 67.4266 49.4617 68.3004C47.946 71.7475 51.6642 75.1855 53.1776 76.9242C54.1399 78.0243 55.5772 79.4033 54.718 81.5408C54.2038 82.8044 52.3341 83.8026 50.9774 84.2193C47.5976 85.2533 40.2454 83.8776 46.0147 81.2484C46.1682 81.1789 48.0793 80.9369 47.1025 80.5079C45.2832 79.6957 41.3488 81.5934 40.6554 82.3608C39.7592 83.3489 39.7614 84.6988 40.7876 85.5457C42.5744 87.0155 46.064 87.412 49.3575 87.1622C52.6802 86.9135 55.51 85.4404 57.3439 83.6345C62.1151 78.925 57.0773 75.2998 54.2923 72.2012C53.647 71.4819 52.8404 70.97 53.0197 69.4162C53.2807 67.1253 57.4055 64.729 60.3955 65.4101C61.2536 65.6039 60.8391 66.1148 61.2177 66.7645C61.7891 67.7414 63.5456 67.5241 64.4015 66.9751C64.9751 66.6066 65.6058 65.9131 65.701 65.0931C65.7682 64.5117 65.3997 64.1151 65.1185 63.872C64.257 63.1259 61.9123 62.6677 60.3395 62.782C56.5104 63.0621 53.0387 63.8754 51.1343 66.0991ZM70.3187 63.7118C69.8818 64.2507 69.8381 65.1133 69.4416 65.698C68.8041 66.6357 68.0043 67.9139 67.5046 68.8818C67.0252 69.815 66.8515 71.2747 65.9945 71.8035C64.0979 72.9562 56.8342 70.7224 59.441 75.33C59.5922 75.6034 60.1378 76.3024 60.4212 76.4178C60.5904 76.4839 60.857 76.4402 61.0038 76.3909C61.1651 76.3372 61.304 76.2408 61.4283 76.1534C61.5269 76.084 61.6132 76.0201 61.695 75.9395C61.975 75.6605 62.2013 75.2785 62.543 75.0657C63.158 74.6792 65.0748 74.4876 64.6905 75.5429C64.4575 76.196 64.0632 76.7998 63.7641 77.4014C63.1166 78.6942 63.0046 80.5426 62.1464 81.673C61.4082 82.6364 61.0598 79.1781 60.2902 83.0778C60.0661 84.1991 59.6124 86.5102 60.9265 86.7399C63.4851 87.1846 65.0401 81.9575 65.8343 80.1852C66.4729 78.758 67.3344 77.0799 68.0345 75.6751C68.1353 75.4768 68.2406 75.2124 68.3818 75.0388C68.6171 74.7408 75.0754 72.7389 71.7739 75.5171C70.2728 76.783 68.5274 78.5441 67.8754 80.6121C67.4128 82.0718 67.1932 83.8227 68.3818 84.7761C70.4106 86.406 73.7098 84.5789 74.9869 83.5035C75.2535 83.2772 75.8752 82.3395 76.1822 82.2824C76.2348 82.2734 76.3009 82.3093 76.3144 82.3093C76.4746 83.3533 75.8214 84.7918 76.7647 85.4404C79.7345 87.4759 84.7488 80.2435 85.8646 78.6751C86.2365 78.1497 86.5827 77.528 87.2727 77.3207C87.4744 79.1501 86.1693 80.5628 86.5289 82.7865C86.5782 83.1114 86.6835 83.5079 86.8448 83.7432C88.3045 85.8627 91.2306 81.804 92.2579 80.8787C93.3524 79.8828 94.2027 78.6225 95.2568 77.5862C95.6142 77.2334 95.957 76.522 96.5821 76.4738C96.7501 78.5978 95.0832 80.0542 94.7505 81.9642C94.4973 83.4217 93.7109 85.1872 94.5903 86.3411C96.153 88.3822 96.4499 85.1435 96.7692 84.1409C97.0392 83.2816 97.5276 82.3417 97.8032 81.5128C97.8626 81.3358 97.8726 81.217 97.9342 81.0624C98.0015 80.9 98.0709 80.7599 98.1482 80.5841C98.8114 79.1076 102.05 72.8968 100.193 71.4584C99.8174 71.166 99.4264 71.0899 98.8909 71.2736C97.597 71.706 94.5645 74.724 93.6638 75.7837C92.8247 76.7673 91.849 77.6859 90.9057 78.5654C88.8456 80.4922 91.6059 74.9794 91.6474 74.8539C91.9285 74.0126 92.399 73.3629 92.4719 72.4129C92.5256 71.6668 92.24 71.194 91.7795 70.9532C90.1899 70.1242 88.9061 71.6388 87.9595 72.5697C86.4605 74.0485 84.8799 75.665 83.6364 77.3745C82.6024 78.7894 81.7532 80.1718 80.531 81.3794C79.879 82.0247 79.59 81.9508 79.9754 80.8776C80.5747 79.1972 81.5773 78.1105 82.2573 76.6284C82.552 75.9742 82.9082 75.4947 83.2925 74.9604C83.5255 74.6288 83.7697 74.2904 83.9534 73.9252C84.2492 73.3315 84.1248 72.6739 83.2656 72.8912C83.0863 72.9327 82.7839 73.1074 82.5486 72.9954C82.2316 72.8453 82.366 72.1183 82.1778 71.8292C81.9224 71.436 80.643 70.7952 79.9462 70.8994C79.8837 70.9139 79.822 70.9319 79.7614 70.9532C79.0299 71.1784 70.8665 72.3703 70.1036 71.6948C70.0947 71.687 70.0566 71.678 70.0521 71.6702C69.8841 71.1705 72.9009 66.2839 73.3143 65.809C73.7075 65.3552 74.383 64.2686 73.7142 63.7891C73.4364 63.5908 72.8841 63.602 72.4932 63.527C72.0473 63.4362 71.616 63.3007 71.0883 63.3388C70.7411 63.3645 70.4823 63.5046 70.3187 63.7118ZM148.555 73.9252C148.809 76.364 145.213 81.897 143.463 82.3854C142.811 82.5692 142.769 81.7234 142.826 81.1151C143.005 79.1109 146.417 73.4771 147.947 73.2609C148.446 73.1903 148.514 73.5197 148.555 73.9252ZM108.841 74.5896C108.328 76.3663 105.284 81.878 103.799 82.3093C103.512 82.3899 103.169 82.3283 103.029 82.1782C101.48 80.4664 107.036 74.0585 108.334 73.8457C108.904 73.7516 108.965 74.156 108.841 74.5896ZM121.257 75.8084C121.017 76.0929 119.217 78.0612 119.932 78.3547C120.348 78.5261 120.66 78.124 120.991 78.2483C120.24 79.7461 118.484 81.5038 117.01 82.2813C116.606 82.4952 116.072 82.5479 115.87 82.0953C115.473 81.2125 116.197 80.2177 116.533 79.6811C117.405 78.292 120.15 74.2031 121.757 73.9252C123.157 73.681 121.278 75.7826 121.257 75.8084ZM77.4559 77.2401C76.8073 78.6079 74.8143 80.5437 73.6089 81.431C72.7631 82.0538 69.9726 83.6166 71.1925 80.7151C71.8871 79.065 75.7677 74.6825 77.6396 74.4282C78.7924 74.2725 77.6307 76.8637 77.4559 77.2401Z" fill="#387DB7"/>
</g>
<defs>
<clipPath id="clip0_25_6551">
<rect width="120" height="54.48" fill="white" transform="translate(40 32.7598)"/>
</clipPath>
</defs>
</svg>
