<svg width="200" height="120" viewBox="0 0 200 120" fill="none" xmlns="http://www.w3.org/2000/svg">
<rect width="200" height="120" rx="16" fill="white"/>
<path d="M127.688 39.905C127.189 36.3174 124.698 33.6416 121.365 33.0835C118.18 32.5852 115.246 34.115 113.651 37.1545C110.372 33.0188 107.447 32.8045 105.554 33.3576C102.848 34.1548 100.82 36.9054 100.128 38.8387V32.9938H92.5637V33.1284C92.5637 33.3626 92.5637 56.8018 92.5637 59.0391C92.5849 59.2383 92.5659 59.4398 92.5078 59.6315C92.4497 59.8232 92.3536 60.0012 92.2254 60.1551C92.0971 60.3089 91.9392 60.4354 91.761 60.5271C91.5829 60.6187 91.3882 60.6736 91.1884 60.6885C90.4858 60.7184 89.7334 60.2201 89.6288 59.0391V32.9938H82.4435V58.8647C82.4735 59.4001 82.3148 59.9291 81.9951 60.3596C81.8806 60.5041 81.7353 60.6211 81.5698 60.7022C81.4042 60.7832 81.2227 60.8262 81.0384 60.828C80.3009 60.828 79.5435 60.1553 79.5435 58.8797V32.9938H72.3284V33.1234C72.3284 33.1234 72.3284 59.7268 72.3284 62.1534C72.4828 63.8974 74.755 67.6844 78.0138 68.6311C79.9023 69.1892 82.8322 68.9699 86.1059 64.8342C87.4961 67.4851 89.9078 69.0048 92.5836 69.0048C92.9892 69.0034 93.3941 68.9701 93.7944 68.9052C95.2502 68.6592 96.6024 67.9935 97.685 66.9897C98.7676 65.9858 99.5334 64.6877 99.8885 63.2546C99.8885 66.5682 99.8885 68.8753 99.8885 68.8753V69.0048H107.114V43.124C107.114 41.8483 107.861 41.1757 108.608 41.1757C108.793 41.1774 108.974 41.2204 109.14 41.3015C109.305 41.3825 109.451 41.4996 109.565 41.644C109.884 42.0749 110.043 42.6036 110.014 43.1389V69.0148H117.199V42.9595C117.303 41.7686 118.061 41.2703 118.758 41.3052C118.958 41.3195 119.153 41.3738 119.331 41.4648C119.51 41.5559 119.668 41.6818 119.797 41.8352C119.925 41.9886 120.022 42.1662 120.081 42.3577C120.14 42.5491 120.159 42.7504 120.139 42.9496C120.139 45.1669 120.139 68.6062 120.139 68.8603V68.9949H127.703L127.688 39.905ZM103.197 48.1566V52.4917H96.834V48.1566H103.197ZM93.7596 68.651C91.308 69.0596 88.0442 68.1876 86.2305 64.5402L86.1358 64.3509L86.0063 64.5153C83.4451 67.8239 80.6995 69.1593 78.0686 68.387C74.9194 67.4601 72.722 63.8077 72.5875 62.1385C72.5875 59.8264 72.5875 35.276 72.5875 33.238H79.2894V58.8747C79.2894 60.3247 80.1664 61.0871 81.0384 61.0871C81.2617 61.0859 81.4818 61.0347 81.6828 60.9373C81.8837 60.8398 82.0602 60.6986 82.1994 60.524C82.5543 60.0462 82.7306 59.4591 82.6977 58.8647V33.2579H89.3647V59.0441C89.4693 60.3995 90.3962 60.9775 91.1984 60.9476C91.4314 60.93 91.6586 60.8664 91.8669 60.7605C92.0752 60.6546 92.2605 60.5084 92.412 60.3305C92.5635 60.1526 92.6782 59.9465 92.7496 59.724C92.8209 59.5014 92.8475 59.267 92.8278 59.0342C92.8278 56.9015 92.8278 35.1863 92.8278 33.2729H99.8635V47.8875H96.5699V52.7558H99.8635V62.0587C99.4001 65.5268 97.0034 68.1179 93.7596 68.651Z" fill="#015EAB"/>
<path d="M135.944 86.9436H64.0563V15.0562H135.944V86.9436ZM66.7071 84.3176H133.318V17.707H66.7071V84.3176Z" fill="#221F1F"/>
<path fill-rule="evenodd" clip-rule="evenodd" d="M80.6381 94.9638H75.24V104.915H80.6381V102.491H78.1466V100.467H79.6532V98.4596H78.1114V96.9762H80.6381V94.9638Z" fill="#221F1F"/>
<path fill-rule="evenodd" clip-rule="evenodd" d="M81.3667 94.9638V104.917H81.2847H84.6324V94.9638H81.3667Z" fill="#221F1F"/>
<path fill-rule="evenodd" clip-rule="evenodd" d="M85.6251 94.9638V104.917H85.5523H90.3389V102.51H88.5434V94.9638H85.6251Z" fill="#221F1F"/>
<path fill-rule="evenodd" clip-rule="evenodd" d="M90.5861 98.3536H93.3457V100.355H90.5861V98.3536Z" fill="#221F1F"/>
<path fill-rule="evenodd" clip-rule="evenodd" d="M104.929 104.932H102.373V97.7376C102.373 96.9911 101.213 96.9354 101.213 97.7376V104.932H98.6697V97.6941C98.589 96.9952 97.487 97.0673 97.4987 97.6941C97.5104 98.3209 97.4987 104.928 97.4987 104.928H94.8107V96.9966C94.8095 96.8741 94.8262 96.7521 94.8601 96.6349C95.4144 94.7177 98.6879 94.2649 99.9135 96.14C102.183 93.9141 104.161 95.4152 104.757 96.3861C104.877 96.587 104.94 96.8196 104.937 97.0564C104.937 98.4868 104.929 104.932 104.929 104.932Z" fill="#221F1F"/>
<path fill-rule="evenodd" clip-rule="evenodd" d="M107.205 99.0157C106.994 99.0402 106.101 99.3924 106.101 100.316V103.769C106.101 103.769 106.101 104.913 107.205 104.913H109.156V103.49H108.093C107.893 103.49 107.716 103.473 107.716 103.156C107.716 102.531 107.716 100.787 107.716 100.787C107.717 100.736 107.728 100.686 107.748 100.639C107.769 100.592 107.798 100.551 107.835 100.516C107.872 100.482 107.915 100.457 107.961 100.441C108.008 100.425 108.057 100.419 108.106 100.424H109.16V99.0157H107.205Z" fill="#221F1F"/>
<path fill-rule="evenodd" clip-rule="evenodd" d="M110.656 94.9638V104.917H110.584H115.37V102.51H113.575V94.9638H110.656Z" fill="#221F1F"/>
<path fill-rule="evenodd" clip-rule="evenodd" d="M117.821 94.9638H121.371L123.395 104.917H120.567L120.187 102.51H118.826L118.402 104.917H115.745L117.827 94.9638H117.821ZM119.301 98.2353H119.796L120.005 100.452H119.134L119.301 98.2353Z" fill="#221F1F"/>
<path fill-rule="evenodd" clip-rule="evenodd" d="M123.97 94.9638V104.917H123.888H127.236V94.9638H123.97Z" fill="#221F1F"/>
<path fill-rule="evenodd" clip-rule="evenodd" d="M128.407 94.9638V104.917H131.018V100.762L133.315 104.917H136V94.9638H133.371V99.4644L130.833 94.9638H128.407Z" fill="#221F1F"/>
<path fill-rule="evenodd" clip-rule="evenodd" d="M66.5683 94.9543V102.148C66.5683 102.895 67.7276 102.951 67.7276 102.148V94.9543H70.2725V102.192C70.3531 102.892 71.4551 102.819 71.4434 102.192C71.4317 101.565 71.4434 94.9597 71.4434 94.9597H74.1262V103.042C73.7567 105.134 70.292 105.688 69.0234 103.747C66.3562 106.364 64 103.87 64 102.915C64 102.235 64.0078 94.9543 64.0078 94.9543H66.5683Z" fill="#221F1F"/>
</svg>
