<svg width="200" height="120" viewBox="0 0 200 120" fill="none" xmlns="http://www.w3.org/2000/svg">
<rect width="200" height="120" rx="16" fill="white"/>
<path fill-rule="evenodd" clip-rule="evenodd" d="M99.9479 100C77.8558 99.9712 59.9705 82.0399 60 59.9487C60.0288 37.8566 77.9609 19.9713 100.051 20C122.143 20.0288 140.029 37.9616 140 60.0529C139.971 82.1442 122.039 100.03 99.9479 100ZM128.393 83.402C129.541 83.4035 130.536 82.5323 130.539 81.2162C130.54 79.9 129.546 79.0265 128.398 79.0257C127.242 79.0242 126.244 79.8946 126.243 81.2107C126.24 82.4569 127.136 83.3996 128.393 83.402ZM88.2014 49.0228C87.8226 39.3299 81.1353 34.9762 72.7507 34.9039C71.8103 34.8961 70.5533 34.9295 69.6144 35.0548L69.5491 84.932L73.5659 84.9367L73.5939 63.9873L94.2742 87.6608L98.4808 87.6662L79.641 64.9713C86.0055 61.7689 88.4799 56.1418 88.2014 49.0228ZM95.2737 51.7881C94.3605 51.9102 93.5336 52.4213 92.9254 53.1502L92.9689 21.3068C91.848 21.5083 90.7466 21.7603 89.6614 22.0575L89.5899 76.3857L92.8966 76.3903L92.9222 57.0262C92.9222 57.0262 92.9238 55.5086 94.11 55.511C95.3375 55.5133 95.3359 57.0301 95.3359 57.0301L95.3126 76.3934L98.6162 76.3973L98.6426 57.034L98.6442 55.0614C98.6473 53.0062 97.139 51.5415 95.2737 51.7881ZM104.546 51.7842C101.957 51.7819 99.8561 55.143 99.8437 64.2176C99.8328 73.2929 101.925 76.6579 104.514 76.6618C106.69 76.6649 108.523 74.2862 109.057 68.1232L105.886 67.7063C105.765 71.461 105.391 72.9319 104.519 72.9304C103.477 72.9296 103.178 70.8558 103.151 65.3501L105.918 65.3532L109.212 65.3587L109.213 64.23C109.225 55.1555 107.133 51.7881 104.546 51.7842ZM115.17 51.799C112.584 51.7951 110.482 55.1578 110.469 64.2323C110.458 73.3069 112.552 76.6727 115.139 76.6758C117.316 76.6781 119.149 74.3002 119.684 68.138L116.512 67.7211C116.392 71.475 116.018 72.9459 115.143 72.9452C114.103 72.9436 113.803 70.8691 113.777 65.3641L116.542 65.368L119.837 65.3719L119.838 64.2448C119.85 55.1703 117.758 51.8021 115.17 51.799ZM132.759 51.8231C131.56 51.8216 130.515 52.3995 129.984 53.2497C129.454 52.398 128.415 51.8169 127.217 51.8161C126.029 51.8146 124.995 52.2634 124.461 53.1043L124.454 53.0809C124.186 51.7749 122.926 51.7197 121.406 51.9577C121.32 51.9709 121.233 51.988 121.149 52.0059L121.116 76.4269L124.423 76.4315L124.448 57.0675C124.448 57.0675 124.45 55.5506 125.636 55.553C126.865 55.5537 126.863 57.0714 126.863 57.0714L126.84 76.4354L130.144 76.4393L130.17 57.0752C130.17 57.0752 130.171 55.5584 131.356 55.56C132.585 55.5615 132.584 57.0791 132.584 57.0791L132.56 76.4417L135.866 76.4471L135.891 57.083L135.894 55.1104L135.904 54.5441C135.897 53.0708 134.497 51.8255 132.759 51.8231ZM115.166 55.5312C116.163 55.532 116.501 57.4595 116.551 62.4946L113.787 62.4915C113.847 57.4556 114.166 55.5296 115.166 55.5312ZM104.541 55.5164C105.537 55.518 105.875 57.4447 105.927 62.4814L103.161 62.4767C103.221 57.4416 103.542 55.5149 104.541 55.5164ZM74.4776 62.3211C74.224 62.3421 73.8047 62.3064 73.5955 62.2916L73.6266 39.0716C74.0179 39.0732 74.4115 39.0156 74.8012 39.0195C81.1991 39.0818 84.5843 43.9278 84.5773 49.9967C84.5688 56.2118 80.9945 61.7969 74.4776 62.3211ZM128.397 79.4069C129.333 79.4084 130.071 80.1513 130.07 81.2162C130.069 82.2857 129.329 83.0224 128.393 83.0208C127.353 83.0192 126.71 82.2056 126.712 81.2115C126.713 80.1458 127.452 79.4053 128.397 79.4069ZM127.961 82.4639L127.963 81.4285L128.337 81.4293L128.961 82.4646L129.412 82.4654L128.735 81.4013C129.1 81.3616 129.367 81.1796 129.367 80.7409C129.369 80.2493 129.071 80.0447 128.486 80.0439L127.567 80.0424L127.564 82.4631L127.961 82.4639ZM128.97 80.7106C128.97 81.0621 128.706 81.0909 128.408 81.0902L127.964 81.0894V80.3823H128.443C128.684 80.3831 128.97 80.4189 128.97 80.7106Z" fill="#E4002B"/>
</svg>
