<svg width="1440" height="700" viewBox="0 0 1440 700" fill="none" xmlns="http://www.w3.org/2000/svg">
<path fill-rule="evenodd" clip-rule="evenodd" d="M1440 0H0V700H1440V0ZM650.125 341.545V359H654.864V352.182H661.136V359H665.875V341.545H661.136V348.364H654.864V341.545H650.125ZM670.852 358.438C671.864 358.972 673.068 359.239 674.466 359.239C675.676 359.239 676.733 359.057 677.636 358.693C678.545 358.324 679.276 357.807 679.827 357.142C680.378 356.472 680.727 355.682 680.875 354.773H676.58C676.489 355.017 676.347 355.227 676.153 355.403C675.96 355.574 675.727 355.705 675.455 355.795C675.188 355.886 674.892 355.932 674.568 355.932C674.102 355.932 673.705 355.838 673.375 355.651C673.045 355.463 672.793 355.205 672.616 354.875C672.44 354.545 672.352 354.17 672.352 353.75V353.545H680.875V352.455C680.875 351.415 680.722 350.48 680.415 349.651C680.108 348.821 679.67 348.116 679.102 347.537C678.534 346.952 677.849 346.506 677.048 346.199C676.247 345.892 675.352 345.739 674.364 345.739C673.011 345.739 671.838 346.02 670.844 346.582C669.849 347.145 669.08 347.932 668.534 348.943C667.989 349.955 667.716 351.136 667.716 352.489C667.716 353.898 667.986 355.108 668.526 356.119C669.071 357.125 669.847 357.898 670.852 358.438ZM672.352 350.955C672.364 350.574 672.463 350.241 672.651 349.957C672.844 349.673 673.099 349.452 673.418 349.293C673.736 349.128 674.085 349.045 674.466 349.045C674.858 349.045 675.207 349.128 675.514 349.293C675.827 349.452 676.074 349.676 676.256 349.966C676.443 350.25 676.54 350.58 676.545 350.955H672.352ZM684.227 358.795C684.869 359.068 685.607 359.205 686.442 359.205C687.011 359.205 687.531 359.136 688.002 359C688.479 358.864 688.903 358.645 689.272 358.344C689.647 358.043 689.965 357.648 690.227 357.159H690.329V359H694.727V350.034C694.727 349.426 694.587 348.864 694.309 348.347C694.036 347.824 693.638 347.369 693.116 346.983C692.593 346.591 691.96 346.287 691.215 346.071C690.471 345.849 689.63 345.739 688.692 345.739C687.391 345.739 686.306 345.943 685.437 346.352C684.567 346.756 683.906 347.295 683.451 347.972C683.002 348.642 682.749 349.375 682.692 350.17H687.022C687.079 349.767 687.246 349.469 687.525 349.276C687.809 349.077 688.175 348.977 688.624 348.977C689.033 348.977 689.369 349.068 689.63 349.25C689.891 349.432 690.022 349.693 690.022 350.034V350.068C690.022 350.318 689.923 350.52 689.724 350.673C689.525 350.821 689.201 350.938 688.752 351.023C688.309 351.102 687.721 351.17 686.988 351.227C686.312 351.278 685.681 351.389 685.096 351.56C684.516 351.73 684.008 351.977 683.57 352.301C683.133 352.625 682.792 353.043 682.548 353.554C682.303 354.06 682.181 354.67 682.181 355.386C682.181 356.256 682.363 356.972 682.727 357.534C683.09 358.097 683.59 358.517 684.227 358.795ZM688.982 356.017C688.67 356.165 688.335 356.239 687.977 356.239C687.579 356.239 687.252 356.142 686.996 355.949C686.741 355.756 686.613 355.477 686.613 355.114C686.613 354.886 686.667 354.682 686.775 354.5C686.888 354.312 687.059 354.156 687.286 354.031C687.519 353.901 687.817 353.807 688.181 353.75C688.369 353.722 688.548 353.69 688.718 353.656C688.894 353.622 689.059 353.585 689.212 353.545C689.371 353.506 689.519 353.463 689.656 353.418C689.798 353.372 689.931 353.324 690.056 353.273V354.364C690.056 354.761 689.957 355.099 689.758 355.378C689.559 355.656 689.3 355.869 688.982 356.017ZM704.781 349.318V345.909H702.531V342.773H697.827V345.909H696.156V349.318H697.827V355.233C697.815 356.148 697.994 356.909 698.364 357.517C698.733 358.125 699.284 358.571 700.017 358.855C700.75 359.134 701.656 359.244 702.736 359.188C703.27 359.159 703.73 359.099 704.116 359.009C704.509 358.918 704.81 358.841 705.02 358.778L704.338 355.472C704.247 355.494 704.105 355.523 703.912 355.557C703.724 355.591 703.56 355.608 703.418 355.608C703.213 355.608 703.045 355.58 702.915 355.523C702.784 355.46 702.688 355.369 702.625 355.25C702.562 355.125 702.531 354.972 702.531 354.79V349.318H704.781ZM712.812 341.545H706.914V359H711.55V348.841H711.687L715.573 358.864H718.369L722.255 348.909H722.391V359H727.028V341.545H721.13L717.073 351.432H716.869L712.812 341.545ZM730.773 358.795C731.415 359.068 732.154 359.205 732.989 359.205C733.558 359.205 734.077 359.136 734.549 359C735.026 358.864 735.45 358.645 735.819 358.344C736.194 358.043 736.512 357.648 736.773 357.159H736.876V359H741.273V350.034C741.273 349.426 741.134 348.864 740.856 348.347C740.583 347.824 740.185 347.369 739.663 346.983C739.14 346.591 738.506 346.287 737.762 346.071C737.018 345.849 736.177 345.739 735.239 345.739C733.938 345.739 732.853 345.943 731.984 346.352C731.114 346.756 730.452 347.295 729.998 347.972C729.549 348.642 729.296 349.375 729.239 350.17H733.569C733.626 349.767 733.793 349.469 734.072 349.276C734.356 349.077 734.722 348.977 735.171 348.977C735.58 348.977 735.915 349.068 736.177 349.25C736.438 349.432 736.569 349.693 736.569 350.034V350.068C736.569 350.318 736.469 350.52 736.271 350.673C736.072 350.821 735.748 350.938 735.299 351.023C734.856 351.102 734.268 351.17 733.535 351.227C732.859 351.278 732.228 351.389 731.643 351.56C731.063 351.73 730.555 351.977 730.117 352.301C729.68 352.625 729.339 353.043 729.094 353.554C728.85 354.06 728.728 354.67 728.728 355.386C728.728 356.256 728.91 356.972 729.273 357.534C729.637 358.097 730.137 358.517 730.773 358.795ZM735.529 356.017C735.217 356.165 734.881 356.239 734.523 356.239C734.126 356.239 733.799 356.142 733.543 355.949C733.288 355.756 733.16 355.477 733.16 355.114C733.16 354.886 733.214 354.682 733.322 354.5C733.435 354.312 733.606 354.156 733.833 354.031C734.066 353.901 734.364 353.807 734.728 353.75C734.915 353.722 735.094 353.69 735.265 353.656C735.441 353.622 735.606 353.585 735.759 353.545C735.918 353.506 736.066 353.463 736.202 353.418C736.344 353.372 736.478 353.324 736.603 353.273V354.364C736.603 354.761 736.504 355.099 736.305 355.378C736.106 355.656 735.847 355.869 735.529 356.017ZM751.158 350.17H755.487C755.43 348.784 754.854 347.699 753.757 346.915C752.666 346.131 751.175 345.739 749.283 345.739C748.038 345.739 746.962 345.906 746.053 346.241C745.149 346.571 744.453 347.054 743.964 347.69C743.482 348.321 743.243 349.091 743.249 350C743.243 351.028 743.572 351.869 744.237 352.523C744.902 353.176 745.902 353.619 747.237 353.852L749.555 354.261C750.067 354.352 750.442 354.472 750.68 354.619C750.925 354.767 751.05 354.966 751.055 355.216C751.05 355.489 750.905 355.699 750.621 355.847C750.342 355.994 749.987 356.068 749.555 356.068C749.021 356.068 748.578 355.957 748.226 355.736C747.879 355.509 747.675 355.188 747.612 354.773H742.942C743.072 356.114 743.7 357.193 744.825 358.011C745.956 358.83 747.521 359.239 749.521 359.239C750.732 359.239 751.808 359.054 752.751 358.685C753.7 358.31 754.447 357.781 754.993 357.099C755.544 356.412 755.822 355.602 755.828 354.67C755.822 353.705 755.49 352.935 754.831 352.361C754.178 351.781 753.18 351.369 751.839 351.125L749.18 350.648C748.68 350.557 748.342 350.429 748.166 350.264C747.996 350.099 747.913 349.92 747.919 349.727C747.913 349.455 748.055 349.244 748.345 349.097C748.635 348.949 748.982 348.875 749.385 348.875C749.697 348.875 749.982 348.929 750.237 349.037C750.499 349.139 750.712 349.287 750.876 349.48C751.041 349.673 751.135 349.903 751.158 350.17ZM765.438 349.318V345.909H763.188V342.773H758.483V345.909H756.812V349.318H758.483V355.233C758.472 356.148 758.651 356.909 759.02 357.517C759.389 358.125 759.94 358.571 760.673 358.855C761.406 359.134 762.312 359.244 763.392 359.188C763.926 359.159 764.386 359.099 764.773 359.009C765.165 358.918 765.466 358.841 765.676 358.778L764.994 355.472C764.903 355.494 764.761 355.523 764.568 355.557C764.381 355.591 764.216 355.608 764.074 355.608C763.869 355.608 763.702 355.58 763.571 355.523C763.44 355.46 763.344 355.369 763.281 355.25C763.219 355.125 763.188 354.972 763.188 354.79V349.318H765.438ZM769.876 358.438C770.887 358.972 772.092 359.239 773.489 359.239C774.7 359.239 775.756 359.057 776.66 358.693C777.569 358.324 778.299 357.807 778.85 357.142C779.401 356.472 779.751 355.682 779.898 354.773H775.603C775.512 355.017 775.37 355.227 775.177 355.403C774.984 355.574 774.751 355.705 774.478 355.795C774.211 355.886 773.915 355.932 773.592 355.932C773.126 355.932 772.728 355.838 772.398 355.651C772.069 355.463 771.816 355.205 771.64 354.875C771.464 354.545 771.376 354.17 771.376 353.75V353.545H779.898V352.455C779.898 351.415 779.745 350.48 779.438 349.651C779.131 348.821 778.694 348.116 778.126 347.537C777.558 346.952 776.873 346.506 776.072 346.199C775.271 345.892 774.376 345.739 773.387 345.739C772.035 345.739 770.862 346.02 769.867 346.582C768.873 347.145 768.103 347.932 767.558 348.943C767.012 349.955 766.739 351.136 766.739 352.489C766.739 353.898 767.009 355.108 767.549 356.119C768.094 357.125 768.87 357.898 769.876 358.438ZM771.376 350.955C771.387 350.574 771.487 350.241 771.674 349.957C771.867 349.673 772.123 349.452 772.441 349.293C772.759 349.128 773.109 349.045 773.489 349.045C773.881 349.045 774.231 349.128 774.538 349.293C774.85 349.452 775.097 349.676 775.279 349.966C775.467 350.25 775.563 350.58 775.569 350.955H771.376ZM781.818 345.909V359H786.523V352.182C786.523 351.682 786.628 351.247 786.838 350.878C787.048 350.503 787.335 350.213 787.699 350.009C788.068 349.798 788.483 349.693 788.943 349.693C789.188 349.693 789.48 349.713 789.821 349.753C790.162 349.793 790.449 349.852 790.682 349.932V345.918C790.494 345.861 790.298 345.818 790.094 345.79C789.895 345.756 789.693 345.739 789.489 345.739C788.79 345.739 788.179 345.952 787.656 346.378C787.139 346.804 786.761 347.477 786.523 348.398H786.386V345.909H781.818Z" fill="#1F1F1F"/>
</svg>
