<svg width="174" height="288" viewBox="0 0 174 288" fill="none" xmlns="http://www.w3.org/2000/svg">
<path d="M83.3523 287.909C66.9886 287.909 52.5426 283.775 40.0142 275.508C27.4858 267.156 17.6847 255.395 10.6108 240.224C3.53693 224.969 0 206.943 0 186.148C0 165.523 3.53693 147.625 10.6108 132.454C17.6847 117.284 27.5284 105.565 40.142 97.2983C52.7557 89.0313 67.3295 84.8977 83.8636 84.8977C96.6477 84.8977 106.747 87.0284 114.162 91.2898C121.662 95.4659 127.372 100.239 131.293 105.608C135.298 110.892 138.409 115.239 140.625 118.648H143.182V22H173.352V283.818H144.205V253.648H140.625C138.409 257.227 135.256 261.744 131.165 267.199C127.074 272.568 121.236 277.383 113.651 281.645C106.065 285.821 95.9659 287.909 83.3523 287.909ZM87.4432 260.807C99.5455 260.807 109.773 257.653 118.125 251.346C126.477 244.954 132.827 236.133 137.173 224.883C141.52 213.548 143.693 200.466 143.693 185.636C143.693 170.977 141.563 158.15 137.301 147.156C133.04 136.077 126.733 127.469 118.381 121.332C110.029 115.111 99.7159 112 87.4432 112C74.6591 112 64.0057 115.281 55.4829 121.844C47.0454 128.321 40.696 137.142 36.4347 148.307C32.2585 159.386 30.1704 171.829 30.1704 185.636C30.1704 199.613 32.3011 212.312 36.5625 223.733C40.9091 235.068 47.3011 244.102 55.7386 250.835C64.2614 257.483 74.8295 260.807 87.4432 260.807Z" fill="#1F1F1F"/>
</svg>
