<svg width="152" height="289" viewBox="0 0 152 289" fill="none" xmlns="http://www.w3.org/2000/svg">
<path d="M147.785 131.534L120.682 139.205C118.978 134.687 116.464 130.298 113.14 126.037C109.901 121.69 105.469 118.111 99.8435 115.298C94.2187 112.486 87.017 111.08 78.2386 111.08C66.2215 111.08 56.2073 113.849 48.196 119.389C40.2698 124.844 36.3068 131.79 36.3068 140.227C36.3068 147.727 39.034 153.651 44.4886 157.997C49.9431 162.344 58.4659 165.966 70.0568 168.864L99.2045 176.023C116.762 180.284 129.844 186.804 138.452 195.582C147.06 204.275 151.364 215.482 151.364 229.204C151.364 240.454 148.125 250.511 141.648 259.375C135.256 268.238 126.307 275.227 114.802 280.34C103.296 285.454 89.9147 288.011 74.659 288.011C54.6306 288.011 38.0539 283.664 24.9289 274.971C11.8039 266.278 3.49431 253.579 0 236.875L28.6363 229.715C31.3636 240.284 36.5198 248.21 44.1051 253.494C51.7755 258.778 61.7897 261.42 74.1477 261.42C88.2102 261.42 99.3745 258.437 107.642 252.471C115.995 246.42 120.171 239.176 120.171 230.738C120.171 223.92 117.785 218.21 113.012 213.608C108.239 208.92 100.91 205.426 91.0227 203.125L58.2954 195.454C40.3125 191.193 27.1022 184.588 18.6647 175.639C10.3125 166.605 6.13636 155.312 6.13636 141.761C6.13636 130.682 9.24715 120.881 15.4687 112.358C21.7755 103.835 30.3409 97.1449 41.1647 92.2869C52.0738 87.429 64.4318 85 78.2386 85C97.6704 85 112.927 89.2614 124.006 97.7841C135.171 106.307 143.097 117.557 147.785 131.534Z" fill="#1F1F1F"/>
</svg>
