<svg width="99" height="289" viewBox="0 0 99 289" fill="none" xmlns="http://www.w3.org/2000/svg">
<path d="M0 288.432V92.0682H29.1478V121.727H31.1932C34.7728 112.011 41.25 104.128 50.625 98.0767C60 92.0256 70.5682 89 82.3296 89C84.5455 89 87.3154 89.0426 90.6392 89.1278C93.9631 89.2131 96.4773 89.3409 98.1819 89.5114V120.193C97.1591 119.938 94.8154 119.554 91.1506 119.043C87.5711 118.446 83.7785 118.148 79.7728 118.148C70.2273 118.148 61.7046 120.151 54.2046 124.156C46.7898 128.077 40.9091 133.531 36.5625 140.52C32.3012 147.423 30.1705 155.307 30.1705 164.17V288.432H0Z" fill="#1F1F1F"/>
</svg>
